<svg width="308" height="250" viewBox="0 0 308 250" fill="none" xmlns="http://www.w3.org/2000/svg">
<rect x="1" y="1" width="306" height="248" rx="9" fill="#13EFE0"/>
<rect x="1" y="1" width="306" height="248" rx="9" stroke="white" stroke-width="2"/>
<path d="M67.8184 128.902L71.5586 117.281H74.2637L69.166 131.5H67.3398L67.8184 128.902ZM64.3613 117.281L68.0723 128.902L68.5801 131.5H66.7441L61.666 117.281H64.3613ZM76.3227 126.334V126.109C76.3227 125.348 76.4333 124.641 76.6547 123.99C76.876 123.333 77.1951 122.763 77.6117 122.281C78.0349 121.793 78.5492 121.415 79.1547 121.148C79.7667 120.875 80.4568 120.738 81.225 120.738C81.9997 120.738 82.6898 120.875 83.2953 121.148C83.9073 121.415 84.4249 121.793 84.848 122.281C85.2712 122.763 85.5935 123.333 85.8148 123.99C86.0362 124.641 86.1469 125.348 86.1469 126.109V126.334C86.1469 127.096 86.0362 127.802 85.8148 128.453C85.5935 129.104 85.2712 129.674 84.848 130.162C84.4249 130.644 83.9105 131.021 83.3051 131.295C82.6996 131.562 82.0128 131.695 81.2445 131.695C80.4698 131.695 79.7764 131.562 79.1645 131.295C78.559 131.021 78.0447 130.644 77.6215 130.162C77.1983 129.674 76.876 129.104 76.6547 128.453C76.4333 127.802 76.3227 127.096 76.3227 126.334ZM78.6762 126.109V126.334C78.6762 126.809 78.725 127.258 78.8227 127.682C78.9203 128.105 79.0733 128.476 79.2816 128.795C79.49 129.114 79.7569 129.365 80.0824 129.547C80.4079 129.729 80.7953 129.82 81.2445 129.82C81.6807 129.82 82.0583 129.729 82.3773 129.547C82.7029 129.365 82.9698 129.114 83.1781 128.795C83.3865 128.476 83.5395 128.105 83.6371 127.682C83.7413 127.258 83.7934 126.809 83.7934 126.334V126.109C83.7934 125.641 83.7413 125.198 83.6371 124.781C83.5395 124.358 83.3832 123.984 83.1684 123.658C82.96 123.333 82.6931 123.079 82.3676 122.896C82.0486 122.708 81.6677 122.613 81.225 122.613C80.7823 122.613 80.3982 122.708 80.0727 122.896C79.7536 123.079 79.49 123.333 79.2816 123.658C79.0733 123.984 78.9203 124.358 78.8227 124.781C78.725 125.198 78.6762 125.641 78.6762 126.109ZM94.5633 120.934V122.652H88.6063V120.934H94.5633ZM90.325 118.346H92.6785V128.58C92.6785 128.906 92.7241 129.156 92.8152 129.332C92.9129 129.501 93.0464 129.615 93.2156 129.674C93.3849 129.732 93.5835 129.762 93.8113 129.762C93.9741 129.762 94.1303 129.752 94.2801 129.732C94.4298 129.713 94.5503 129.693 94.6414 129.674L94.6512 131.471C94.4559 131.529 94.228 131.581 93.9676 131.627C93.7137 131.673 93.4207 131.695 93.0887 131.695C92.5483 131.695 92.0698 131.601 91.6531 131.412C91.2365 131.217 90.9109 130.901 90.6766 130.465C90.4422 130.029 90.325 129.449 90.325 128.727V118.346ZM100.343 122.945V131.5H97.9895V120.934H100.236L100.343 122.945ZM103.575 120.865L103.556 123.053C103.413 123.027 103.256 123.007 103.087 122.994C102.924 122.981 102.762 122.975 102.599 122.975C102.195 122.975 101.84 123.033 101.534 123.15C101.228 123.261 100.971 123.424 100.763 123.639C100.561 123.847 100.405 124.101 100.294 124.4C100.183 124.7 100.118 125.035 100.099 125.406L99.5617 125.445C99.5617 124.781 99.6268 124.166 99.757 123.6C99.8872 123.033 100.083 122.535 100.343 122.105C100.61 121.676 100.942 121.34 101.339 121.1C101.743 120.859 102.208 120.738 102.736 120.738C102.879 120.738 103.032 120.751 103.195 120.777C103.364 120.803 103.491 120.833 103.575 120.865ZM111.113 131.695C110.332 131.695 109.625 131.568 108.994 131.314C108.369 131.054 107.835 130.693 107.392 130.23C106.956 129.768 106.621 129.225 106.386 128.6C106.152 127.975 106.035 127.301 106.035 126.578V126.188C106.035 125.361 106.155 124.612 106.396 123.941C106.637 123.271 106.972 122.698 107.402 122.223C107.832 121.741 108.339 121.373 108.925 121.119C109.511 120.865 110.146 120.738 110.83 120.738C111.585 120.738 112.246 120.865 112.812 121.119C113.379 121.373 113.847 121.731 114.218 122.193C114.596 122.649 114.876 123.193 115.058 123.824C115.247 124.456 115.341 125.152 115.341 125.914V126.92H107.177V125.23H113.017V125.045C113.004 124.622 112.92 124.225 112.763 123.854C112.614 123.482 112.382 123.183 112.07 122.955C111.757 122.727 111.341 122.613 110.82 122.613C110.429 122.613 110.081 122.698 109.775 122.867C109.476 123.03 109.225 123.268 109.023 123.58C108.821 123.893 108.665 124.27 108.554 124.713C108.45 125.149 108.398 125.641 108.398 126.188V126.578C108.398 127.04 108.46 127.47 108.584 127.867C108.714 128.258 108.903 128.6 109.15 128.893C109.397 129.186 109.697 129.417 110.048 129.586C110.4 129.749 110.8 129.83 111.25 129.83C111.816 129.83 112.321 129.716 112.763 129.488C113.206 129.26 113.59 128.938 113.916 128.521L115.156 129.723C114.928 130.055 114.632 130.374 114.267 130.68C113.903 130.979 113.457 131.223 112.929 131.412C112.408 131.601 111.803 131.695 111.113 131.695ZM127.721 122.965V135.562H125.368V120.934H127.536L127.721 122.965ZM134.606 126.119V126.324C134.606 127.092 134.515 127.805 134.332 128.463C134.157 129.114 133.893 129.684 133.541 130.172C133.196 130.654 132.77 131.028 132.262 131.295C131.754 131.562 131.168 131.695 130.504 131.695C129.847 131.695 129.271 131.575 128.776 131.334C128.287 131.087 127.874 130.738 127.536 130.289C127.197 129.84 126.924 129.312 126.715 128.707C126.513 128.095 126.37 127.424 126.286 126.695V125.904C126.37 125.13 126.513 124.426 126.715 123.795C126.924 123.163 127.197 122.62 127.536 122.164C127.874 121.708 128.287 121.357 128.776 121.109C129.264 120.862 129.834 120.738 130.485 120.738C131.149 120.738 131.738 120.868 132.252 121.129C132.767 121.383 133.2 121.747 133.551 122.223C133.903 122.691 134.166 123.258 134.342 123.922C134.518 124.579 134.606 125.312 134.606 126.119ZM132.252 126.324V126.119C132.252 125.631 132.207 125.178 132.116 124.762C132.024 124.339 131.881 123.967 131.686 123.648C131.491 123.329 131.24 123.082 130.934 122.906C130.635 122.724 130.273 122.633 129.85 122.633C129.433 122.633 129.075 122.704 128.776 122.848C128.476 122.984 128.226 123.176 128.024 123.424C127.822 123.671 127.666 123.961 127.555 124.293C127.444 124.618 127.366 124.973 127.321 125.357V127.252C127.399 127.721 127.532 128.15 127.721 128.541C127.91 128.932 128.177 129.244 128.522 129.479C128.873 129.706 129.323 129.82 129.87 129.82C130.293 129.82 130.654 129.729 130.954 129.547C131.253 129.365 131.497 129.114 131.686 128.795C131.881 128.469 132.024 128.095 132.116 127.672C132.207 127.249 132.252 126.799 132.252 126.324ZM144.565 129.01V120.934H146.929V131.5H144.702L144.565 129.01ZM144.897 126.812L145.688 126.793C145.688 127.503 145.61 128.157 145.454 128.756C145.298 129.348 145.057 129.866 144.731 130.309C144.406 130.745 143.989 131.087 143.481 131.334C142.973 131.575 142.365 131.695 141.655 131.695C141.141 131.695 140.669 131.62 140.239 131.471C139.809 131.321 139.438 131.09 139.126 130.777C138.82 130.465 138.582 130.058 138.413 129.557C138.244 129.055 138.159 128.456 138.159 127.76V120.934H140.512V127.779C140.512 128.163 140.558 128.486 140.649 128.746C140.74 129 140.864 129.205 141.02 129.361C141.177 129.518 141.359 129.628 141.567 129.693C141.776 129.758 141.997 129.791 142.231 129.791C142.902 129.791 143.429 129.661 143.813 129.4C144.204 129.133 144.481 128.775 144.643 128.326C144.813 127.877 144.897 127.372 144.897 126.812ZM150.95 116.5H153.304V129.244L153.079 131.5H150.95V116.5ZM160.198 126.119V126.324C160.198 127.105 160.111 127.825 159.935 128.482C159.765 129.133 159.505 129.7 159.154 130.182C158.808 130.663 158.379 131.038 157.864 131.305C157.357 131.565 156.767 131.695 156.097 131.695C155.439 131.695 154.866 131.572 154.378 131.324C153.89 131.077 153.48 130.725 153.148 130.27C152.822 129.814 152.558 129.27 152.357 128.639C152.155 128.007 152.012 127.311 151.927 126.549V125.895C152.012 125.126 152.155 124.43 152.357 123.805C152.558 123.173 152.822 122.63 153.148 122.174C153.48 121.712 153.887 121.357 154.368 121.109C154.857 120.862 155.426 120.738 156.077 120.738C156.754 120.738 157.35 120.868 157.864 121.129C158.385 121.389 158.818 121.76 159.163 122.242C159.508 122.717 159.765 123.284 159.935 123.941C160.111 124.599 160.198 125.325 160.198 126.119ZM157.845 126.324V126.119C157.845 125.644 157.806 125.198 157.728 124.781C157.65 124.358 157.519 123.987 157.337 123.668C157.161 123.349 156.92 123.098 156.614 122.916C156.315 122.727 155.941 122.633 155.491 122.633C155.075 122.633 154.717 122.704 154.417 122.848C154.118 122.991 153.867 123.186 153.665 123.434C153.463 123.681 153.304 123.967 153.187 124.293C153.076 124.618 153.001 124.97 152.962 125.348V127.115C153.021 127.604 153.144 128.053 153.333 128.463C153.529 128.867 153.802 129.192 154.154 129.439C154.505 129.68 154.958 129.801 155.511 129.801C155.947 129.801 156.315 129.713 156.614 129.537C156.914 129.361 157.152 129.117 157.327 128.805C157.51 128.486 157.64 128.115 157.718 127.691C157.803 127.268 157.845 126.812 157.845 126.324ZM166.31 116.5V131.5H163.947V116.5H166.31ZM173.008 120.934V131.5H170.645V120.934H173.008ZM170.488 118.16C170.488 117.802 170.605 117.506 170.84 117.271C171.081 117.031 171.413 116.91 171.836 116.91C172.253 116.91 172.581 117.031 172.822 117.271C173.063 117.506 173.184 117.802 173.184 118.16C173.184 118.512 173.063 118.805 172.822 119.039C172.581 119.273 172.253 119.391 171.836 119.391C171.413 119.391 171.081 119.273 170.84 119.039C170.605 118.805 170.488 118.512 170.488 118.16ZM181.502 129.82C181.886 129.82 182.232 129.745 182.537 129.596C182.85 129.439 183.101 129.225 183.289 128.951C183.485 128.678 183.592 128.362 183.612 128.004H185.829C185.815 128.688 185.614 129.309 185.223 129.869C184.832 130.429 184.315 130.875 183.67 131.207C183.026 131.533 182.313 131.695 181.532 131.695C180.724 131.695 180.021 131.559 179.422 131.285C178.823 131.005 178.325 130.621 177.928 130.133C177.531 129.645 177.232 129.081 177.03 128.443C176.834 127.805 176.737 127.122 176.737 126.393V126.051C176.737 125.322 176.834 124.638 177.03 124C177.232 123.355 177.531 122.789 177.928 122.301C178.325 121.812 178.823 121.432 179.422 121.158C180.021 120.878 180.721 120.738 181.522 120.738C182.368 120.738 183.11 120.908 183.748 121.246C184.386 121.578 184.888 122.044 185.252 122.643C185.623 123.235 185.815 123.925 185.829 124.713H183.612C183.592 124.322 183.495 123.971 183.319 123.658C183.149 123.339 182.909 123.085 182.596 122.896C182.29 122.708 181.922 122.613 181.493 122.613C181.017 122.613 180.623 122.711 180.311 122.906C179.998 123.095 179.754 123.355 179.579 123.688C179.403 124.013 179.276 124.381 179.198 124.791C179.126 125.195 179.09 125.615 179.09 126.051V126.393C179.09 126.829 179.126 127.252 179.198 127.662C179.269 128.072 179.393 128.44 179.569 128.766C179.751 129.085 179.998 129.342 180.311 129.537C180.623 129.726 181.021 129.82 181.502 129.82ZM191.755 120.934V131.5H189.391V120.934H191.755ZM189.235 118.16C189.235 117.802 189.352 117.506 189.587 117.271C189.828 117.031 190.16 116.91 190.583 116.91C190.999 116.91 191.328 117.031 191.569 117.271C191.81 117.506 191.93 117.802 191.93 118.16C191.93 118.512 191.81 118.805 191.569 119.039C191.328 119.273 190.999 119.391 190.583 119.391C190.16 119.391 189.828 119.273 189.587 119.039C189.352 118.805 189.235 118.512 189.235 118.16ZM200.777 120.934V122.652H194.82V120.934H200.777ZM196.538 118.346H198.892V128.58C198.892 128.906 198.937 129.156 199.029 129.332C199.126 129.501 199.26 129.615 199.429 129.674C199.598 129.732 199.797 129.762 200.025 129.762C200.187 129.762 200.344 129.752 200.493 129.732C200.643 129.713 200.764 129.693 200.855 129.674L200.864 131.471C200.669 131.529 200.441 131.581 200.181 131.627C199.927 131.673 199.634 131.695 199.302 131.695C198.762 131.695 198.283 131.601 197.866 131.412C197.45 131.217 197.124 130.901 196.89 130.465C196.655 130.029 196.538 129.449 196.538 128.727V118.346ZM208.851 131.695C208.07 131.695 207.364 131.568 206.732 131.314C206.107 131.054 205.573 130.693 205.13 130.23C204.694 129.768 204.359 129.225 204.125 128.6C203.89 127.975 203.773 127.301 203.773 126.578V126.188C203.773 125.361 203.893 124.612 204.134 123.941C204.375 123.271 204.711 122.698 205.14 122.223C205.57 121.741 206.078 121.373 206.664 121.119C207.25 120.865 207.884 120.738 208.568 120.738C209.323 120.738 209.984 120.865 210.55 121.119C211.117 121.373 211.586 121.731 211.957 122.193C212.334 122.649 212.614 123.193 212.796 123.824C212.985 124.456 213.08 125.152 213.08 125.914V126.92H204.916V125.23H210.755V125.045C210.742 124.622 210.658 124.225 210.502 123.854C210.352 123.482 210.121 123.183 209.808 122.955C209.496 122.727 209.079 122.613 208.558 122.613C208.168 122.613 207.819 122.698 207.513 122.867C207.214 123.03 206.963 123.268 206.761 123.58C206.559 123.893 206.403 124.27 206.293 124.713C206.188 125.149 206.136 125.641 206.136 126.188V126.578C206.136 127.04 206.198 127.47 206.322 127.867C206.452 128.258 206.641 128.6 206.888 128.893C207.136 129.186 207.435 129.417 207.787 129.586C208.138 129.749 208.539 129.83 208.988 129.83C209.554 129.83 210.059 129.716 210.502 129.488C210.944 129.26 211.328 128.938 211.654 128.521L212.894 129.723C212.666 130.055 212.37 130.374 212.005 130.68C211.641 130.979 211.195 131.223 210.668 131.412C210.147 131.601 209.541 131.695 208.851 131.695ZM207.211 119.439L209.115 116.5H211.771L209.115 119.439H207.211ZM225.616 120.934V131.5H223.252V120.934H225.616ZM223.096 118.16C223.096 117.802 223.213 117.506 223.448 117.271C223.689 117.031 224.021 116.91 224.444 116.91C224.86 116.91 225.189 117.031 225.43 117.271C225.671 117.506 225.791 117.802 225.791 118.16C225.791 118.512 225.671 118.805 225.43 119.039C225.189 119.273 224.86 119.391 224.444 119.391C224.021 119.391 223.689 119.273 223.448 119.039C223.213 118.805 223.096 118.512 223.096 118.16ZM234.11 129.82C234.494 129.82 234.839 129.745 235.145 129.596C235.458 129.439 235.708 129.225 235.897 128.951C236.093 128.678 236.2 128.362 236.22 128.004H238.436C238.423 128.688 238.221 129.309 237.831 129.869C237.44 130.429 236.923 130.875 236.278 131.207C235.634 131.533 234.921 131.695 234.139 131.695C233.332 131.695 232.629 131.559 232.03 131.285C231.431 131.005 230.933 130.621 230.536 130.133C230.139 129.645 229.839 129.081 229.637 128.443C229.442 127.805 229.345 127.122 229.345 126.393V126.051C229.345 125.322 229.442 124.638 229.637 124C229.839 123.355 230.139 122.789 230.536 122.301C230.933 121.812 231.431 121.432 232.03 121.158C232.629 120.878 233.329 120.738 234.13 120.738C234.976 120.738 235.718 120.908 236.356 121.246C236.994 121.578 237.496 122.044 237.86 122.643C238.231 123.235 238.423 123.925 238.436 124.713H236.22C236.2 124.322 236.102 123.971 235.927 123.658C235.757 123.339 235.516 123.085 235.204 122.896C234.898 122.708 234.53 122.613 234.1 122.613C233.625 122.613 233.231 122.711 232.919 122.906C232.606 123.095 232.362 123.355 232.186 123.688C232.011 124.013 231.884 124.381 231.805 124.791C231.734 125.195 231.698 125.615 231.698 126.051V126.393C231.698 126.829 231.734 127.252 231.805 127.662C231.877 128.072 232.001 128.44 232.177 128.766C232.359 129.085 232.606 129.342 232.919 129.537C233.231 129.726 233.628 129.82 234.11 129.82ZM244.363 120.934V131.5H241.999V120.934H244.363ZM241.843 118.16C241.843 117.802 241.96 117.506 242.195 117.271C242.435 117.031 242.767 116.91 243.191 116.91C243.607 116.91 243.936 117.031 244.177 117.271C244.418 117.506 244.538 117.802 244.538 118.16C244.538 118.512 244.418 118.805 244.177 119.039C243.936 119.273 243.607 119.391 243.191 119.391C242.767 119.391 242.435 119.273 242.195 119.039C241.96 118.805 241.843 118.512 241.843 118.16Z" fill="black"/>
</svg>
