<svg width="457" height="119" viewBox="0 0 457 119" fill="none" xmlns="http://www.w3.org/2000/svg">
<path d="M0 0H407C434.614 0 457 22.3858 457 50V69C457 96.6142 434.614 119 407 119H0V0Z" fill="white"/>
<mask id="path-2-outside-1_968_7169" maskUnits="userSpaceOnUse" x="118" y="42" width="320" height="52" fill="black">
<rect fill="white" x="118" y="42" width="320" height="52"/>
<path d="M120.776 63.248C120.776 59.984 121.528 57.056 123.032 54.464C124.568 51.872 126.632 49.856 129.224 48.416C131.848 46.944 134.712 46.208 137.816 46.208C141.368 46.208 144.52 47.088 147.272 48.848C150.056 50.576 152.072 53.04 153.32 56.24H146.744C145.88 54.48 144.68 53.168 143.144 52.304C141.608 51.44 139.832 51.008 137.816 51.008C135.608 51.008 133.64 51.504 131.912 52.496C130.184 53.488 128.824 54.912 127.832 56.768C126.872 58.624 126.392 60.784 126.392 63.248C126.392 65.712 126.872 67.872 127.832 69.728C128.824 71.584 130.184 73.024 131.912 74.048C133.64 75.04 135.608 75.536 137.816 75.536C139.832 75.536 141.608 75.104 143.144 74.24C144.68 73.376 145.88 72.064 146.744 70.304H153.32C152.072 73.504 150.056 75.968 147.272 77.696C144.52 79.424 141.368 80.288 137.816 80.288C134.68 80.288 131.816 79.568 129.224 78.128C126.632 76.656 124.568 74.624 123.032 72.032C121.528 69.44 120.776 66.512 120.776 63.248ZM161.741 66.656C161.741 64 162.285 61.648 163.373 59.6C164.493 57.552 165.997 55.968 167.885 54.848C169.805 53.696 171.917 53.12 174.221 53.12C176.301 53.12 178.109 53.536 179.645 54.368C181.213 55.168 182.461 56.176 183.389 57.392V53.552H188.909V80H183.389V76.064C182.461 77.312 181.197 78.352 179.597 79.184C177.997 80.016 176.173 80.432 174.125 80.432C171.853 80.432 169.773 79.856 167.885 78.704C165.997 77.52 164.493 75.888 163.373 73.808C162.285 71.696 161.741 69.312 161.741 66.656ZM183.389 66.752C183.389 64.928 183.005 63.344 182.237 62C181.501 60.656 180.525 59.632 179.309 58.928C178.093 58.224 176.781 57.872 175.373 57.872C173.965 57.872 172.653 58.224 171.437 58.928C170.221 59.6 169.229 60.608 168.461 61.952C167.725 63.264 167.357 64.832 167.357 66.656C167.357 68.48 167.725 70.08 168.461 71.456C169.229 72.832 170.221 73.888 171.437 74.624C172.685 75.328 173.997 75.68 175.373 75.68C176.781 75.68 178.093 75.328 179.309 74.624C180.525 73.92 181.501 72.896 182.237 71.552C183.005 70.176 183.389 68.576 183.389 66.752ZM213.28 53.12C215.36 53.12 217.216 53.552 218.848 54.416C220.512 55.28 221.808 56.56 222.736 58.256C223.664 59.952 224.128 62 224.128 64.4V80H218.704V65.216C218.704 62.848 218.112 61.04 216.928 59.792C215.744 58.512 214.128 57.872 212.08 57.872C210.032 57.872 208.4 58.512 207.184 59.792C206 61.04 205.408 62.848 205.408 65.216V80H199.936V53.552H205.408V56.576C206.304 55.488 207.44 54.64 208.816 54.032C210.224 53.424 211.712 53.12 213.28 53.12ZM233.124 66.656C233.124 64 233.668 61.648 234.756 59.6C235.876 57.552 237.38 55.968 239.268 54.848C241.188 53.696 243.3 53.12 245.604 53.12C247.684 53.12 249.492 53.536 251.028 54.368C252.596 55.168 253.844 56.176 254.772 57.392V53.552H260.292V80H254.772V76.064C253.844 77.312 252.58 78.352 250.98 79.184C249.38 80.016 247.556 80.432 245.508 80.432C243.236 80.432 241.156 79.856 239.268 78.704C237.38 77.52 235.876 75.888 234.756 73.808C233.668 71.696 233.124 69.312 233.124 66.656ZM254.772 66.752C254.772 64.928 254.388 63.344 253.62 62C252.884 60.656 251.908 59.632 250.692 58.928C249.476 58.224 248.164 57.872 246.756 57.872C245.348 57.872 244.036 58.224 242.82 58.928C241.604 59.6 240.612 60.608 239.844 61.952C239.108 63.264 238.74 64.832 238.74 66.656C238.74 68.48 239.108 70.08 239.844 71.456C240.612 72.832 241.604 73.888 242.82 74.624C244.068 75.328 245.38 75.68 246.756 75.68C248.164 75.68 249.476 75.328 250.692 74.624C251.908 73.92 252.884 72.896 253.62 71.552C254.388 70.176 254.772 68.576 254.772 66.752ZM276.791 57.392C277.591 56.048 278.647 55.008 279.959 54.272C281.303 53.504 282.887 53.12 284.711 53.12V58.784H283.319C281.175 58.784 279.543 59.328 278.423 60.416C277.335 61.504 276.791 63.392 276.791 66.08V80H271.319V53.552H276.791V57.392ZM361.841 46.64V80H356.369V65.408H340.673V80H335.201V46.64H340.673V60.944H356.369V46.64H361.841ZM396.837 53.552V80H391.365V76.88C390.501 77.968 389.365 78.832 387.957 79.472C386.581 80.08 385.109 80.384 383.541 80.384C381.461 80.384 379.589 79.952 377.925 79.088C376.293 78.224 374.997 76.944 374.037 75.248C373.109 73.552 372.645 71.504 372.645 69.104V53.552H378.069V68.288C378.069 70.656 378.661 72.48 379.845 73.76C381.029 75.008 382.645 75.632 384.693 75.632C386.741 75.632 388.357 75.008 389.541 73.76C390.757 72.48 391.365 70.656 391.365 68.288V53.552H396.837ZM413.369 57.488C414.297 56.208 415.561 55.168 417.161 54.368C418.793 53.536 420.601 53.12 422.585 53.12C424.921 53.12 427.033 53.68 428.921 54.8C430.809 55.92 432.297 57.52 433.385 59.6C434.473 61.648 435.017 64 435.017 66.656C435.017 69.312 434.473 71.696 433.385 73.808C432.297 75.888 430.793 77.52 428.873 78.704C426.985 79.856 424.889 80.432 422.585 80.432C420.537 80.432 418.713 80.032 417.113 79.232C415.545 78.432 414.297 77.408 413.369 76.16V80H407.897V44.48H413.369V57.488ZM429.449 66.656C429.449 64.832 429.065 63.264 428.297 61.952C427.561 60.608 426.569 59.6 425.321 58.928C424.105 58.224 422.793 57.872 421.385 57.872C420.009 57.872 418.697 58.224 417.449 58.928C416.233 59.632 415.241 60.656 414.473 62C413.737 63.344 413.369 64.928 413.369 66.752C413.369 68.576 413.737 70.176 414.473 71.552C415.241 72.896 416.233 73.92 417.449 74.624C418.697 75.328 420.009 75.68 421.385 75.68C422.793 75.68 424.105 75.328 425.321 74.624C426.569 73.888 427.561 72.832 428.297 71.456C429.065 70.08 429.449 68.48 429.449 66.656Z"/>
<path d="M302.141 91.52C299.88 91.52 297.107 91.3067 293.821 90.88V82.56H299.581C301.203 82.56 302.248 82.112 302.717 81.216C303.229 80.32 303.144 79.0613 302.461 77.44L289.341 46.08H301.181L309.181 67.84L315.901 46.08H327.741L314.941 81.28C313.704 84.6507 312.104 87.1893 310.141 88.896C308.179 90.6453 305.512 91.52 302.141 91.52Z"/>
</mask>
<path d="M120.776 63.248C120.776 59.984 121.528 57.056 123.032 54.464C124.568 51.872 126.632 49.856 129.224 48.416C131.848 46.944 134.712 46.208 137.816 46.208C141.368 46.208 144.52 47.088 147.272 48.848C150.056 50.576 152.072 53.04 153.32 56.24H146.744C145.88 54.48 144.68 53.168 143.144 52.304C141.608 51.44 139.832 51.008 137.816 51.008C135.608 51.008 133.64 51.504 131.912 52.496C130.184 53.488 128.824 54.912 127.832 56.768C126.872 58.624 126.392 60.784 126.392 63.248C126.392 65.712 126.872 67.872 127.832 69.728C128.824 71.584 130.184 73.024 131.912 74.048C133.64 75.04 135.608 75.536 137.816 75.536C139.832 75.536 141.608 75.104 143.144 74.24C144.68 73.376 145.88 72.064 146.744 70.304H153.32C152.072 73.504 150.056 75.968 147.272 77.696C144.52 79.424 141.368 80.288 137.816 80.288C134.68 80.288 131.816 79.568 129.224 78.128C126.632 76.656 124.568 74.624 123.032 72.032C121.528 69.44 120.776 66.512 120.776 63.248ZM161.741 66.656C161.741 64 162.285 61.648 163.373 59.6C164.493 57.552 165.997 55.968 167.885 54.848C169.805 53.696 171.917 53.12 174.221 53.12C176.301 53.12 178.109 53.536 179.645 54.368C181.213 55.168 182.461 56.176 183.389 57.392V53.552H188.909V80H183.389V76.064C182.461 77.312 181.197 78.352 179.597 79.184C177.997 80.016 176.173 80.432 174.125 80.432C171.853 80.432 169.773 79.856 167.885 78.704C165.997 77.52 164.493 75.888 163.373 73.808C162.285 71.696 161.741 69.312 161.741 66.656ZM183.389 66.752C183.389 64.928 183.005 63.344 182.237 62C181.501 60.656 180.525 59.632 179.309 58.928C178.093 58.224 176.781 57.872 175.373 57.872C173.965 57.872 172.653 58.224 171.437 58.928C170.221 59.6 169.229 60.608 168.461 61.952C167.725 63.264 167.357 64.832 167.357 66.656C167.357 68.48 167.725 70.08 168.461 71.456C169.229 72.832 170.221 73.888 171.437 74.624C172.685 75.328 173.997 75.68 175.373 75.68C176.781 75.68 178.093 75.328 179.309 74.624C180.525 73.92 181.501 72.896 182.237 71.552C183.005 70.176 183.389 68.576 183.389 66.752ZM213.28 53.12C215.36 53.12 217.216 53.552 218.848 54.416C220.512 55.28 221.808 56.56 222.736 58.256C223.664 59.952 224.128 62 224.128 64.4V80H218.704V65.216C218.704 62.848 218.112 61.04 216.928 59.792C215.744 58.512 214.128 57.872 212.08 57.872C210.032 57.872 208.4 58.512 207.184 59.792C206 61.04 205.408 62.848 205.408 65.216V80H199.936V53.552H205.408V56.576C206.304 55.488 207.44 54.64 208.816 54.032C210.224 53.424 211.712 53.12 213.28 53.12ZM233.124 66.656C233.124 64 233.668 61.648 234.756 59.6C235.876 57.552 237.38 55.968 239.268 54.848C241.188 53.696 243.3 53.12 245.604 53.12C247.684 53.12 249.492 53.536 251.028 54.368C252.596 55.168 253.844 56.176 254.772 57.392V53.552H260.292V80H254.772V76.064C253.844 77.312 252.58 78.352 250.98 79.184C249.38 80.016 247.556 80.432 245.508 80.432C243.236 80.432 241.156 79.856 239.268 78.704C237.38 77.52 235.876 75.888 234.756 73.808C233.668 71.696 233.124 69.312 233.124 66.656ZM254.772 66.752C254.772 64.928 254.388 63.344 253.62 62C252.884 60.656 251.908 59.632 250.692 58.928C249.476 58.224 248.164 57.872 246.756 57.872C245.348 57.872 244.036 58.224 242.82 58.928C241.604 59.6 240.612 60.608 239.844 61.952C239.108 63.264 238.74 64.832 238.74 66.656C238.74 68.48 239.108 70.08 239.844 71.456C240.612 72.832 241.604 73.888 242.82 74.624C244.068 75.328 245.38 75.68 246.756 75.68C248.164 75.68 249.476 75.328 250.692 74.624C251.908 73.92 252.884 72.896 253.62 71.552C254.388 70.176 254.772 68.576 254.772 66.752ZM276.791 57.392C277.591 56.048 278.647 55.008 279.959 54.272C281.303 53.504 282.887 53.12 284.711 53.12V58.784H283.319C281.175 58.784 279.543 59.328 278.423 60.416C277.335 61.504 276.791 63.392 276.791 66.08V80H271.319V53.552H276.791V57.392ZM361.841 46.64V80H356.369V65.408H340.673V80H335.201V46.64H340.673V60.944H356.369V46.64H361.841ZM396.837 53.552V80H391.365V76.88C390.501 77.968 389.365 78.832 387.957 79.472C386.581 80.08 385.109 80.384 383.541 80.384C381.461 80.384 379.589 79.952 377.925 79.088C376.293 78.224 374.997 76.944 374.037 75.248C373.109 73.552 372.645 71.504 372.645 69.104V53.552H378.069V68.288C378.069 70.656 378.661 72.48 379.845 73.76C381.029 75.008 382.645 75.632 384.693 75.632C386.741 75.632 388.357 75.008 389.541 73.76C390.757 72.48 391.365 70.656 391.365 68.288V53.552H396.837ZM413.369 57.488C414.297 56.208 415.561 55.168 417.161 54.368C418.793 53.536 420.601 53.12 422.585 53.12C424.921 53.12 427.033 53.68 428.921 54.8C430.809 55.92 432.297 57.52 433.385 59.6C434.473 61.648 435.017 64 435.017 66.656C435.017 69.312 434.473 71.696 433.385 73.808C432.297 75.888 430.793 77.52 428.873 78.704C426.985 79.856 424.889 80.432 422.585 80.432C420.537 80.432 418.713 80.032 417.113 79.232C415.545 78.432 414.297 77.408 413.369 76.16V80H407.897V44.48H413.369V57.488ZM429.449 66.656C429.449 64.832 429.065 63.264 428.297 61.952C427.561 60.608 426.569 59.6 425.321 58.928C424.105 58.224 422.793 57.872 421.385 57.872C420.009 57.872 418.697 58.224 417.449 58.928C416.233 59.632 415.241 60.656 414.473 62C413.737 63.344 413.369 64.928 413.369 66.752C413.369 68.576 413.737 70.176 414.473 71.552C415.241 72.896 416.233 73.92 417.449 74.624C418.697 75.328 420.009 75.68 421.385 75.68C422.793 75.68 424.105 75.328 425.321 74.624C426.569 73.888 427.561 72.832 428.297 71.456C429.065 70.08 429.449 68.48 429.449 66.656Z" fill="#09635D"/>
<path d="M302.141 91.52C299.88 91.52 297.107 91.3067 293.821 90.88V82.56H299.581C301.203 82.56 302.248 82.112 302.717 81.216C303.229 80.32 303.144 79.0613 302.461 77.44L289.341 46.08H301.181L309.181 67.84L315.901 46.08H327.741L314.941 81.28C313.704 84.6507 312.104 87.1893 310.141 88.896C308.179 90.6453 305.512 91.52 302.141 91.52Z" fill="#FCCC0D"/>
<path d="M123.032 54.464L121.311 53.4444L121.307 53.4523L121.302 53.4602L123.032 54.464ZM129.224 48.416L130.195 50.1643L130.203 50.1603L129.224 48.416ZM147.272 48.848L146.194 50.5329L146.206 50.5402L146.217 50.5473L147.272 48.848ZM153.32 56.24V58.24H156.247L155.183 55.5133L153.32 56.24ZM146.744 56.24L144.949 57.1213L145.498 58.24H146.744V56.24ZM143.144 52.304L144.125 50.5608L143.144 52.304ZM131.912 52.496L132.908 54.2305H132.908L131.912 52.496ZM127.832 56.768L126.068 55.8252L126.062 55.8372L126.056 55.8492L127.832 56.768ZM127.832 69.728L126.056 70.6468L126.062 70.6588L126.068 70.6708L127.832 69.728ZM131.912 74.048L130.892 75.7686L130.904 75.7756L130.916 75.7825L131.912 74.048ZM143.144 74.24L144.125 75.9832L143.144 74.24ZM146.744 70.304V68.304H145.498L144.949 69.4227L146.744 70.304ZM153.32 70.304L155.183 71.0307L156.247 68.304H153.32V70.304ZM147.272 77.696L146.217 75.9967L146.208 76.0022L147.272 77.696ZM129.224 78.128L128.236 79.8671L128.245 79.8718L128.253 79.8763L129.224 78.128ZM123.032 72.032L121.302 73.0358L121.307 73.0437L121.311 73.0516L123.032 72.032ZM122.776 63.248C122.776 60.3041 123.45 57.728 124.762 55.4678L121.302 53.4602C119.606 56.384 118.776 59.6639 118.776 63.248H122.776ZM124.753 55.4836C126.111 53.1915 127.918 51.4292 130.195 50.1643L128.253 46.6677C125.346 48.2828 123.025 50.5525 121.311 53.4444L124.753 55.4836ZM130.203 50.1603C132.518 48.8614 135.043 48.208 137.816 48.208V44.208C134.381 44.208 131.178 45.0266 128.245 46.6717L130.203 50.1603ZM137.816 48.208C141.021 48.208 143.792 48.9966 146.194 50.5329L148.35 47.1631C145.248 45.1794 141.715 44.208 137.816 44.208V48.208ZM146.217 50.5473C148.615 52.0356 150.358 54.149 151.457 56.9667L155.183 55.5133C153.786 51.931 151.497 49.1164 148.327 47.1487L146.217 50.5473ZM153.32 54.24H146.744V58.24H153.32V54.24ZM148.539 55.3587C147.518 53.2782 146.052 51.6452 144.125 50.5608L142.163 54.0471C143.308 54.6908 144.242 55.6818 144.949 57.1213L148.539 55.3587ZM144.125 50.5608C142.248 49.5055 140.125 49.008 137.816 49.008V53.008C139.539 53.008 140.968 53.3745 142.163 54.0471L144.125 50.5608ZM137.816 49.008C135.297 49.008 132.979 49.5772 130.916 50.7615L132.908 54.2305C134.301 53.4308 135.919 53.008 137.816 53.008V49.008ZM130.916 50.7615C128.844 51.9509 127.226 53.658 126.068 55.8252L129.596 57.7108C130.422 56.166 131.524 55.0251 132.908 54.2305L130.916 50.7615ZM126.056 55.8492C124.924 58.0359 124.392 60.5214 124.392 63.248H128.392C128.392 61.0466 128.82 59.2121 129.608 57.6868L126.056 55.8492ZM124.392 63.248C124.392 65.9746 124.924 68.4601 126.056 70.6468L129.608 68.8092C128.82 67.2839 128.392 65.4494 128.392 63.248H124.392ZM126.068 70.6708C127.224 72.8331 128.835 74.5491 130.892 75.7686L132.932 72.3274C131.533 71.4989 130.424 70.3349 129.596 68.7852L126.068 70.6708ZM130.916 75.7825C132.979 76.9668 135.297 77.536 137.816 77.536V73.536C135.919 73.536 134.301 73.1132 132.908 72.3135L130.916 75.7825ZM137.816 77.536C140.125 77.536 142.248 77.0385 144.125 75.9832L142.163 72.4968C140.968 73.1695 139.539 73.536 137.816 73.536V77.536ZM144.125 75.9832C146.052 74.8988 147.518 73.2658 148.539 71.1853L144.949 69.4227C144.242 70.8622 143.308 71.8532 142.163 72.4968L144.125 75.9832ZM146.744 72.304H153.32V68.304H146.744V72.304ZM151.457 69.5773C150.358 72.395 148.615 74.5084 146.217 75.9967L148.327 79.3953C151.497 77.4276 153.786 74.613 155.183 71.0307L151.457 69.5773ZM146.208 76.0022C143.805 77.5117 141.028 78.288 137.816 78.288V82.288C141.708 82.288 145.235 81.3363 148.336 79.3898L146.208 76.0022ZM137.816 78.288C135 78.288 132.473 77.6451 130.195 76.3797L128.253 79.8763C131.159 81.491 134.36 82.288 137.816 82.288V78.288ZM130.212 76.3889C127.926 75.0908 126.113 73.3082 124.753 71.0124L121.311 73.0516C123.023 75.9398 125.338 78.2212 128.236 79.8671L130.212 76.3889ZM124.762 71.0282C123.45 68.768 122.776 66.1919 122.776 63.248H118.776C118.776 66.8321 119.606 70.112 121.302 73.0358L124.762 71.0282ZM163.373 59.6L161.618 58.6404L161.612 58.651L161.607 58.6617L163.373 59.6ZM167.885 54.848L168.905 56.5681L168.914 56.563L167.885 54.848ZM179.645 54.368L178.692 56.1266L178.714 56.1383L178.736 56.1495L179.645 54.368ZM183.389 57.392L181.799 58.6053L185.389 63.3094V57.392H183.389ZM183.389 53.552V51.552H181.389V53.552H183.389ZM188.909 53.552H190.909V51.552H188.909V53.552ZM188.909 80V82H190.909V80H188.909ZM183.389 80H181.389V82H183.389V80ZM183.389 76.064H185.389V70.0226L181.784 74.8706L183.389 76.064ZM179.597 79.184L178.674 77.4096L179.597 79.184ZM167.885 78.704L166.822 80.3984L166.833 80.4049L166.843 80.4113L167.885 78.704ZM163.373 73.808L161.595 74.7239L161.603 74.7401L161.612 74.7562L163.373 73.808ZM182.237 62L180.483 62.9606L180.492 62.9765L180.501 62.9923L182.237 62ZM179.309 58.928L178.307 60.6589L179.309 58.928ZM171.437 58.928L172.404 60.6785L172.422 60.6688L172.439 60.6589L171.437 58.928ZM168.461 61.952L166.725 60.9597L166.721 60.9666L166.717 60.9735L168.461 61.952ZM168.461 71.456L166.697 72.3993L166.706 72.4151L166.715 72.4307L168.461 71.456ZM171.437 74.624L170.401 76.335L170.428 76.3509L170.454 76.366L171.437 74.624ZM179.309 74.624L180.311 76.3549L179.309 74.624ZM182.237 71.552L180.491 70.5773L180.487 70.5843L180.483 70.5914L182.237 71.552ZM163.741 66.656C163.741 64.2792 164.226 62.2578 165.139 60.5383L161.607 58.6617C160.344 61.0382 159.741 63.7207 159.741 66.656H163.741ZM165.128 60.5596C166.087 58.8057 167.346 57.4934 168.905 56.5681L166.865 53.1279C164.648 54.4426 162.899 56.2983 161.618 58.6404L165.128 60.5596ZM168.914 56.563C170.514 55.6031 172.268 55.12 174.221 55.12V51.12C171.566 51.12 169.096 51.7889 166.856 53.133L168.914 56.563ZM174.221 55.12C176.032 55.12 177.5 55.4807 178.692 56.1266L180.598 52.6094C178.718 51.5913 176.57 51.12 174.221 51.12V55.12ZM178.736 56.1495C180.078 56.834 181.078 57.6607 181.799 58.6053L184.979 56.1787C183.844 54.6913 182.348 53.502 180.554 52.5865L178.736 56.1495ZM185.389 57.392V53.552H181.389V57.392H185.389ZM183.389 55.552H188.909V51.552H183.389V55.552ZM186.909 53.552V80H190.909V53.552H186.909ZM188.909 78H183.389V82H188.909V78ZM185.389 80V76.064H181.389V80H185.389ZM181.784 74.8706C181.063 75.8399 180.049 76.6949 178.674 77.4096L180.52 80.9584C182.345 80.0091 183.859 78.7841 184.994 77.2574L181.784 74.8706ZM178.674 77.4096C177.396 78.0743 175.896 78.432 174.125 78.432V82.432C176.45 82.432 178.598 81.9577 180.52 80.9584L178.674 77.4096ZM174.125 78.432C172.21 78.432 170.492 77.9519 168.927 76.9967L166.843 80.4113C169.054 81.7601 171.496 82.432 174.125 82.432V78.432ZM168.948 77.0096C167.371 76.0208 166.1 74.6538 165.134 72.8598L161.612 74.7562C162.886 77.1222 164.623 79.0192 166.822 80.3984L168.948 77.0096ZM165.151 72.8921C164.225 71.0954 163.741 69.0314 163.741 66.656H159.741C159.741 69.5926 160.345 72.2966 161.595 74.7239L165.151 72.8921ZM185.389 66.752C185.389 64.6424 184.943 62.7039 183.973 61.0077L180.501 62.9923C181.067 63.9841 181.389 65.2136 181.389 66.752H185.389ZM183.991 61.0394C183.096 59.4047 181.872 58.1007 180.311 57.1971L178.307 60.6589C179.178 61.1632 179.906 61.9073 180.483 62.9606L183.991 61.0394ZM180.311 57.1971C178.79 56.3165 177.132 55.872 175.373 55.872V59.872C176.43 59.872 177.396 60.1315 178.307 60.6589L180.311 57.1971ZM175.373 55.872C173.614 55.872 171.956 56.3165 170.435 57.1971L172.439 60.6589C173.35 60.1315 174.316 59.872 175.373 59.872V55.872ZM170.47 57.1775C168.897 58.0467 167.653 59.3346 166.725 60.9597L170.197 62.9443C170.805 61.8814 171.545 61.1533 172.404 60.6785L170.47 57.1775ZM166.717 60.9735C165.781 62.6418 165.357 64.5618 165.357 66.656H169.357C169.357 65.1022 169.669 63.8862 170.205 62.9305L166.717 60.9735ZM165.357 66.656C165.357 68.7534 165.782 70.6876 166.697 72.3993L170.225 70.5127C169.668 69.4723 169.357 68.2066 169.357 66.656H165.357ZM166.715 72.4307C167.633 74.076 168.857 75.4004 170.401 76.335L172.473 72.913C171.585 72.3756 170.825 71.588 170.207 70.4813L166.715 72.4307ZM170.454 76.366C171.989 77.2318 173.638 77.68 175.373 77.68V73.68C174.356 73.68 173.381 73.4242 172.42 72.882L170.454 76.366ZM175.373 77.68C177.132 77.68 178.79 77.2355 180.311 76.3549L178.307 72.8931C177.396 73.4205 176.43 73.68 175.373 73.68V77.68ZM180.311 76.3549C181.872 75.4513 183.096 74.1473 183.991 72.5126L180.483 70.5914C179.906 71.6447 179.178 72.3887 178.307 72.8931L180.311 76.3549ZM183.983 72.5267C184.942 70.8088 185.389 68.863 185.389 66.752H181.389C181.389 68.289 181.068 69.5432 180.491 70.5773L183.983 72.5267ZM218.848 54.416L217.912 56.1836L217.92 56.1873L217.927 56.191L218.848 54.416ZM222.736 58.256L220.982 59.216L222.736 58.256ZM224.128 80V82H226.128V80H224.128ZM218.704 80H216.704V82H218.704V80ZM216.928 59.792L215.46 61.1501L215.469 61.1594L215.477 61.1685L216.928 59.792ZM207.184 59.792L205.734 58.4145L205.733 58.4155L207.184 59.792ZM205.408 80V82H207.408V80H205.408ZM199.936 80H197.936V82H199.936V80ZM199.936 53.552V51.552H197.936V53.552H199.936ZM205.408 53.552H207.408V51.552H205.408V53.552ZM205.408 56.576H203.408V62.1507L206.952 57.8474L205.408 56.576ZM208.816 54.032L208.023 52.1959L208.016 52.1992L208.008 52.2026L208.816 54.032ZM213.28 55.12C215.076 55.12 216.604 55.4906 217.912 56.1836L219.784 52.6484C217.829 51.6134 215.645 51.12 213.28 51.12V55.12ZM217.927 56.191C219.227 56.8661 220.238 57.8568 220.982 59.216L224.491 57.296C223.378 55.2632 221.798 53.6939 219.77 52.641L217.927 56.191ZM220.982 59.216C221.714 60.5548 222.128 62.2557 222.128 64.4H226.128C226.128 61.7443 225.614 59.3492 224.491 57.296L220.982 59.216ZM222.128 64.4V80H226.128V64.4H222.128ZM224.128 78H218.704V82H224.128V78ZM220.704 80V65.216H216.704V80H220.704ZM220.704 65.216C220.704 62.5312 220.03 60.156 218.379 58.4155L215.477 61.1685C216.194 61.924 216.704 63.1648 216.704 65.216H220.704ZM218.396 58.4339C216.767 56.6727 214.58 55.872 212.08 55.872V59.872C213.677 59.872 214.721 60.3513 215.46 61.1501L218.396 58.4339ZM212.08 55.872C209.58 55.872 207.389 56.6726 205.734 58.4145L208.634 61.1695C209.411 60.3514 210.485 59.872 212.08 59.872V55.872ZM205.733 58.4155C204.082 60.156 203.408 62.5312 203.408 65.216H207.408C207.408 63.1648 207.918 61.924 208.635 61.1685L205.733 58.4155ZM203.408 65.216V80H207.408V65.216H203.408ZM205.408 78H199.936V82H205.408V78ZM201.936 80V53.552H197.936V80H201.936ZM199.936 55.552H205.408V51.552H199.936V55.552ZM203.408 53.552V56.576H207.408V53.552H203.408ZM206.952 57.8474C207.637 57.0163 208.514 56.352 209.625 55.8614L208.008 52.2026C206.366 52.928 204.972 53.9597 203.864 55.3046L206.952 57.8474ZM209.609 55.8681C210.761 55.3707 211.979 55.12 213.28 55.12V51.12C211.446 51.12 209.687 51.4773 208.023 52.1959L209.609 55.8681ZM234.756 59.6L233.001 58.6404L232.996 58.651L232.99 58.6617L234.756 59.6ZM239.268 54.848L240.289 56.5681L240.297 56.563L239.268 54.848ZM251.028 54.368L250.076 56.1266L250.097 56.1383L250.119 56.1495L251.028 54.368ZM254.772 57.392L253.182 58.6053L256.772 63.3094V57.392H254.772ZM254.772 53.552V51.552H252.772V53.552H254.772ZM260.292 53.552H262.292V51.552H260.292V53.552ZM260.292 80V82H262.292V80H260.292ZM254.772 80H252.772V82H254.772V80ZM254.772 76.064H256.772V70.0226L253.167 74.8706L254.772 76.064ZM250.98 79.184L250.057 77.4096L250.98 79.184ZM239.268 78.704L238.206 80.3984L238.216 80.4049L238.226 80.4113L239.268 78.704ZM234.756 73.808L232.978 74.7239L232.987 74.7401L232.995 74.7562L234.756 73.808ZM253.62 62L251.866 62.9606L251.875 62.9765L251.884 62.9923L253.62 62ZM250.692 58.928L249.69 60.6589L250.692 58.928ZM242.82 58.928L243.787 60.6785L243.805 60.6688L243.822 60.6589L242.82 58.928ZM239.844 61.952L238.108 60.9597L238.104 60.9666L238.1 60.9735L239.844 61.952ZM239.844 71.456L238.081 72.3993L238.089 72.4151L238.098 72.4307L239.844 71.456ZM242.82 74.624L241.785 76.335L241.811 76.3509L241.837 76.366L242.82 74.624ZM250.692 74.624L251.694 76.3549L250.692 74.624ZM253.62 71.552L251.874 70.5773L251.87 70.5843L251.866 70.5914L253.62 71.552ZM235.124 66.656C235.124 64.2792 235.609 62.2578 236.522 60.5383L232.99 58.6617C231.727 61.0382 231.124 63.7207 231.124 66.656H235.124ZM236.511 60.5596C237.47 58.8057 238.729 57.4934 240.289 56.5681L238.248 53.1279C236.031 54.4426 234.282 56.2983 233.001 58.6404L236.511 60.5596ZM240.297 56.563C241.897 55.6031 243.652 55.12 245.604 55.12V51.12C242.949 51.12 240.479 51.7889 238.239 53.133L240.297 56.563ZM245.604 55.12C247.415 55.12 248.883 55.4807 250.076 56.1266L251.981 52.6094C250.101 51.5913 247.953 51.12 245.604 51.12V55.12ZM250.119 56.1495C251.461 56.834 252.461 57.6607 253.182 58.6053L256.362 56.1787C255.227 54.6913 253.732 53.502 251.937 52.5865L250.119 56.1495ZM256.772 57.392V53.552H252.772V57.392H256.772ZM254.772 55.552H260.292V51.552H254.772V55.552ZM258.292 53.552V80H262.292V53.552H258.292ZM260.292 78H254.772V82H260.292V78ZM256.772 80V76.064H252.772V80H256.772ZM253.167 74.8706C252.446 75.8399 251.432 76.6949 250.057 77.4096L251.903 80.9584C253.729 80.0091 255.242 78.7841 256.377 77.2574L253.167 74.8706ZM250.057 77.4096C248.779 78.0743 247.279 78.432 245.508 78.432V82.432C247.833 82.432 249.981 81.9577 251.903 80.9584L250.057 77.4096ZM245.508 78.432C243.593 78.432 241.875 77.9519 240.31 76.9967L238.226 80.4113C240.437 81.7601 242.879 82.432 245.508 82.432V78.432ZM240.331 77.0096C238.754 76.0208 237.483 74.6538 236.517 72.8598L232.995 74.7562C234.269 77.1222 236.006 79.0192 238.206 80.3984L240.331 77.0096ZM236.534 72.8921C235.608 71.0954 235.124 69.0314 235.124 66.656H231.124C231.124 69.5926 231.728 72.2966 232.978 74.7239L236.534 72.8921ZM256.772 66.752C256.772 64.6424 256.326 62.7039 255.357 61.0077L251.884 62.9923C252.45 63.9841 252.772 65.2136 252.772 66.752H256.772ZM255.374 61.0394C254.479 59.4047 253.255 58.1007 251.694 57.1971L249.69 60.6589C250.561 61.1632 251.289 61.9073 251.866 62.9606L255.374 61.0394ZM251.694 57.1971C250.173 56.3165 248.515 55.872 246.756 55.872V59.872C247.813 59.872 248.779 60.1315 249.69 60.6589L251.694 57.1971ZM246.756 55.872C244.997 55.872 243.339 56.3165 241.818 57.1971L243.822 60.6589C244.733 60.1315 245.699 59.872 246.756 59.872V55.872ZM241.853 57.1775C240.28 58.0467 239.036 59.3346 238.108 60.9597L241.581 62.9443C242.188 61.8814 242.928 61.1533 243.787 60.6785L241.853 57.1775ZM238.1 60.9735C237.164 62.6418 236.74 64.5618 236.74 66.656H240.74C240.74 65.1022 241.052 63.8862 241.588 62.9305L238.1 60.9735ZM236.74 66.656C236.74 68.7534 237.165 70.6876 238.081 72.3993L241.608 70.5127C241.051 69.4723 240.74 68.2066 240.74 66.656H236.74ZM238.098 72.4307C239.016 74.076 240.24 75.4004 241.785 76.335L243.856 72.913C242.968 72.3756 242.208 71.588 241.591 70.4813L238.098 72.4307ZM241.837 76.366C243.372 77.2318 245.021 77.68 246.756 77.68V73.68C245.739 73.68 244.764 73.4242 243.803 72.882L241.837 76.366ZM246.756 77.68C248.515 77.68 250.173 77.2355 251.694 76.3549L249.69 72.8931C248.779 73.4205 247.813 73.68 246.756 73.68V77.68ZM251.694 76.3549C253.255 75.4513 254.479 74.1473 255.374 72.5126L251.866 70.5914C251.289 71.6447 250.561 72.3887 249.69 72.8931L251.694 76.3549ZM255.367 72.5267C256.325 70.8088 256.772 68.863 256.772 66.752H252.772C252.772 68.289 252.451 69.5432 251.874 70.5773L255.367 72.5267ZM276.791 57.392H274.791V64.6622L278.51 58.415L276.791 57.392ZM279.959 54.272L280.938 56.0163L280.945 56.0124L280.952 56.0085L279.959 54.272ZM284.711 53.12H286.711V51.12H284.711V53.12ZM284.711 58.784V60.784H286.711V58.784H284.711ZM278.423 60.416L277.03 58.9814L277.019 58.9915L277.009 59.0018L278.423 60.416ZM276.791 80V82H278.791V80H276.791ZM271.319 80H269.319V82H271.319V80ZM271.319 53.552V51.552H269.319V53.552H271.319ZM276.791 53.552H278.791V51.552H276.791V53.552ZM278.51 58.415C279.138 57.3596 279.944 56.5739 280.938 56.0163L278.981 52.5277C277.351 53.4421 276.045 54.7364 275.073 56.369L278.51 58.415ZM280.952 56.0085C281.944 55.4417 283.173 55.12 284.711 55.12V51.12C282.602 51.12 280.663 51.5663 278.967 52.5355L280.952 56.0085ZM282.711 53.12V58.784H286.711V53.12H282.711ZM284.711 56.784H283.319V60.784H284.711V56.784ZM283.319 56.784C280.853 56.784 278.644 57.4132 277.03 58.9814L279.817 61.8506C280.443 61.2428 281.498 60.784 283.319 60.784V56.784ZM277.009 59.0018C275.349 60.6623 274.791 63.2284 274.791 66.08H278.791C278.791 63.5556 279.322 62.3457 279.838 61.8302L277.009 59.0018ZM274.791 66.08V80H278.791V66.08H274.791ZM276.791 78H271.319V82H276.791V78ZM273.319 80V53.552H269.319V80H273.319ZM271.319 55.552H276.791V51.552H271.319V55.552ZM274.791 53.552V57.392H278.791V53.552H274.791ZM293.821 90.88H291.821V92.6371L293.564 92.8633L293.821 90.88ZM293.821 82.56V80.56H291.821V82.56H293.821ZM302.717 81.216L300.981 80.2237L300.963 80.2555L300.946 80.288L302.717 81.216ZM302.461 77.44L300.616 78.2119L300.618 78.2161L302.461 77.44ZM289.341 46.08V44.08H286.337L287.496 46.8519L289.341 46.08ZM301.181 46.08L303.058 45.3899L302.577 44.08H301.181V46.08ZM309.181 67.84L307.304 68.5301L309.346 74.0843L311.092 68.4301L309.181 67.84ZM315.901 46.08V44.08H314.426L313.99 45.4899L315.901 46.08ZM327.741 46.08L329.621 46.7635L330.597 44.08H327.741V46.08ZM314.941 81.28L316.819 81.9692L316.821 81.9635L314.941 81.28ZM310.141 88.896L308.829 87.3868L308.82 87.3948L308.811 87.403L310.141 88.896ZM302.141 89.52C299.996 89.52 297.314 89.3168 294.079 88.8967L293.564 92.8633C296.899 93.2965 299.764 93.52 302.141 93.52V89.52ZM295.821 90.88V82.56H291.821V90.88H295.821ZM293.821 84.56H299.581V80.56H293.821V84.56ZM299.581 84.56C301.464 84.56 303.497 84.0381 304.489 82.144L300.946 80.288C300.941 80.2971 300.938 80.3007 300.93 80.308C300.919 80.3174 300.882 80.3479 300.793 80.3857C300.602 80.4678 300.228 80.56 299.581 80.56V84.56ZM304.454 82.2083C305.439 80.4847 305.062 78.4638 304.305 76.6639L300.618 78.2161C301.225 79.6588 301.02 80.1553 300.981 80.2237L304.454 82.2083ZM304.306 76.6681L291.186 45.3081L287.496 46.8519L300.616 78.2119L304.306 76.6681ZM289.341 48.08H301.181V44.08H289.341V48.08ZM299.304 46.7701L307.304 68.5301L311.058 67.1499L303.058 45.3899L299.304 46.7701ZM311.092 68.4301L317.812 46.6701L313.99 45.4899L307.27 67.2499L311.092 68.4301ZM315.901 48.08H327.741V44.08H315.901V48.08ZM325.862 45.3965L313.062 80.5965L316.821 81.9635L329.621 46.7635L325.862 45.3965ZM313.064 80.5908C311.901 83.7594 310.459 85.9697 308.829 87.3868L311.454 90.4052C313.749 88.409 315.507 85.5419 316.819 81.9692L313.064 80.5908ZM308.811 87.403C307.308 88.742 305.164 89.52 302.141 89.52V93.52C305.86 93.52 309.049 92.5487 311.472 90.389L308.811 87.403ZM361.841 46.64H363.841V44.64H361.841V46.64ZM361.841 80V82H363.841V80H361.841ZM356.369 80H354.369V82H356.369V80ZM356.369 65.408H358.369V63.408H356.369V65.408ZM340.673 65.408V63.408H338.673V65.408H340.673ZM340.673 80V82H342.673V80H340.673ZM335.201 80H333.201V82H335.201V80ZM335.201 46.64V44.64H333.201V46.64H335.201ZM340.673 46.64H342.673V44.64H340.673V46.64ZM340.673 60.944H338.673V62.944H340.673V60.944ZM356.369 60.944V62.944H358.369V60.944H356.369ZM356.369 46.64V44.64H354.369V46.64H356.369ZM359.841 46.64V80H363.841V46.64H359.841ZM361.841 78H356.369V82H361.841V78ZM358.369 80V65.408H354.369V80H358.369ZM356.369 63.408H340.673V67.408H356.369V63.408ZM338.673 65.408V80H342.673V65.408H338.673ZM340.673 78H335.201V82H340.673V78ZM337.201 80V46.64H333.201V80H337.201ZM335.201 48.64H340.673V44.64H335.201V48.64ZM338.673 46.64V60.944H342.673V46.64H338.673ZM340.673 62.944H356.369V58.944H340.673V62.944ZM358.369 60.944V46.64H354.369V60.944H358.369ZM356.369 48.64H361.841V44.64H356.369V48.64ZM396.837 53.552H398.837V51.552H396.837V53.552ZM396.837 80V82H398.837V80H396.837ZM391.365 80H389.365V82H391.365V80ZM391.365 76.88H393.365V71.1454L389.799 75.6362L391.365 76.88ZM387.957 79.472L388.765 81.3014L388.775 81.2971L388.785 81.2927L387.957 79.472ZM377.925 79.088L376.989 80.8556L376.996 80.8593L377.003 80.863L377.925 79.088ZM374.037 75.248L372.282 76.208L372.289 76.2207L372.296 76.2332L374.037 75.248ZM372.645 53.552V51.552H370.645V53.552H372.645ZM378.069 53.552H380.069V51.552H378.069V53.552ZM379.845 73.76L378.377 75.1181L378.385 75.1274L378.394 75.1365L379.845 73.76ZM389.541 73.76L388.091 72.3825L388.09 72.3835L389.541 73.76ZM391.365 53.552V51.552H389.365V53.552H391.365ZM394.837 53.552V80H398.837V53.552H394.837ZM396.837 78H391.365V82H396.837V78ZM393.365 80V76.88H389.365V80H393.365ZM389.799 75.6362C389.153 76.4491 388.282 77.1273 387.129 77.6513L388.785 81.2927C390.448 80.5367 391.849 79.4869 392.931 78.1238L389.799 75.6362ZM387.149 77.6426C386.038 78.1333 384.843 78.384 383.541 78.384V82.384C385.375 82.384 387.124 82.0267 388.765 81.3014L387.149 77.6426ZM383.541 78.384C381.746 78.384 380.196 78.0136 378.847 77.313L377.003 80.863C378.982 81.8904 381.176 82.384 383.541 82.384V78.384ZM378.861 77.3204C377.585 76.6452 376.56 75.6458 375.778 74.2628L372.296 76.2332C373.434 78.2422 375.001 79.8028 376.989 80.8556L378.861 77.3204ZM375.792 74.288C375.059 72.9492 374.645 71.2483 374.645 69.104H370.645C370.645 71.7597 371.159 74.1548 372.282 76.208L375.792 74.288ZM374.645 69.104V53.552H370.645V69.104H374.645ZM372.645 55.552H378.069V51.552H372.645V55.552ZM376.069 53.552V68.288H380.069V53.552H376.069ZM376.069 68.288C376.069 70.9766 376.744 73.3531 378.377 75.1181L381.313 72.4019C380.578 71.6069 380.069 70.3354 380.069 68.288H376.069ZM378.394 75.1365C380.027 76.8578 382.209 77.632 384.693 77.632V73.632C383.081 73.632 382.031 73.1582 381.296 72.3835L378.394 75.1365ZM384.693 77.632C387.177 77.632 389.359 76.8578 390.992 75.1365L388.09 72.3835C387.355 73.1582 386.305 73.632 384.693 73.632V77.632ZM390.991 75.1375C392.667 73.3737 393.365 70.9897 393.365 68.288H389.365C389.365 70.3223 388.847 71.5863 388.091 72.3825L390.991 75.1375ZM393.365 68.288V53.552H389.365V68.288H393.365ZM391.365 55.552H396.837V51.552H391.365V55.552ZM413.369 57.488H411.369V63.654L414.988 58.6619L413.369 57.488ZM417.161 54.368L418.055 56.1569L418.062 56.1534L418.069 56.1498L417.161 54.368ZM428.921 54.8L429.941 53.0799L428.921 54.8ZM433.385 59.6L431.613 60.527L431.619 60.5383L433.385 59.6ZM433.385 73.808L435.157 74.735L435.163 74.7239L433.385 73.808ZM428.873 78.704L429.915 80.4113L429.923 80.4063L428.873 78.704ZM417.113 79.232L416.204 81.0135L416.211 81.0172L416.218 81.0209L417.113 79.232ZM413.369 76.16L414.974 74.9666L411.369 70.1186V76.16H413.369ZM413.369 80V82H415.369V80H413.369ZM407.897 80H405.897V82H407.897V80ZM407.897 44.48V42.48H405.897V44.48H407.897ZM413.369 44.48H415.369V42.48H413.369V44.48ZM428.297 61.952L426.543 62.9126L426.556 62.9377L426.571 62.9624L428.297 61.952ZM425.321 58.928L424.319 60.6589L424.346 60.6743L424.373 60.6889L425.321 58.928ZM417.449 58.928L416.466 57.186L416.456 57.1915L416.447 57.1971L417.449 58.928ZM414.473 62L412.736 61.0077L412.727 61.0235L412.719 61.0394L414.473 62ZM414.473 71.552L412.709 72.4953L412.723 72.52L412.736 72.5443L414.473 71.552ZM417.449 74.624L416.447 76.3549L416.456 76.3605L416.466 76.366L417.449 74.624ZM425.321 74.624L426.323 76.3549L426.33 76.3508L426.337 76.3467L425.321 74.624ZM428.297 71.456L426.55 70.4813L426.542 70.4969L426.533 70.5127L428.297 71.456ZM414.988 58.6619C415.704 57.6747 416.705 56.8322 418.055 56.1569L416.266 52.5791C414.417 53.5038 412.89 54.7413 411.75 56.3141L414.988 58.6619ZM418.069 56.1498C419.397 55.4729 420.89 55.12 422.585 55.12V51.12C420.312 51.12 418.189 51.5991 416.253 52.5862L418.069 56.1498ZM422.585 55.12C424.586 55.12 426.341 55.5952 427.9 56.5201L429.941 53.0799C427.724 51.7648 425.256 51.12 422.585 51.12V55.12ZM427.9 56.5201C429.447 57.4374 430.684 58.7523 431.613 60.527L435.157 58.673C433.909 56.2877 432.171 54.4026 429.941 53.0799L427.9 56.5201ZM431.619 60.5383C432.532 62.2578 433.017 64.2792 433.017 66.656H437.017C437.017 63.7207 436.414 61.0382 435.151 58.6617L431.619 60.5383ZM433.017 66.656C433.017 69.0314 432.533 71.0954 431.607 72.8921L435.163 74.7239C436.413 72.2966 437.017 69.5926 437.017 66.656H433.017ZM431.613 72.881C430.684 74.6558 429.424 76.0143 427.823 77.0017L429.923 80.4063C432.162 79.0257 433.909 77.1202 435.157 74.735L431.613 72.881ZM427.831 76.9967C426.27 77.9491 424.537 78.432 422.585 78.432V82.432C425.24 82.432 427.699 81.7629 429.915 80.4113L427.831 76.9967ZM422.585 78.432C420.802 78.432 419.292 78.0854 418.007 77.4431L416.218 81.0209C418.134 81.9786 420.272 82.432 422.585 82.432V78.432ZM418.022 77.4505C416.692 76.7718 415.695 75.9368 414.974 74.9666L411.764 77.3534C412.899 78.8792 414.398 80.0922 416.204 81.0135L418.022 77.4505ZM411.369 76.16V80H415.369V76.16H411.369ZM413.369 78H407.897V82H413.369V78ZM409.897 80V44.48H405.897V80H409.897ZM407.897 46.48H413.369V42.48H407.897V46.48ZM411.369 44.48V57.488H415.369V44.48H411.369ZM431.449 66.656C431.449 64.548 431.003 62.6162 430.023 60.9416L426.571 62.9624C427.127 63.9118 427.449 65.116 427.449 66.656H431.449ZM430.051 60.9914C429.145 59.337 427.885 58.0372 426.269 57.1671L424.373 60.6889C425.253 61.1628 425.977 61.879 426.543 62.9126L430.051 60.9914ZM426.323 57.1971C424.802 56.3165 423.144 55.872 421.385 55.872V59.872C422.442 59.872 423.408 60.1315 424.319 60.6589L426.323 57.1971ZM421.385 55.872C419.65 55.872 418.001 56.3202 416.466 57.186L418.432 60.67C419.393 60.1278 420.368 59.872 421.385 59.872V55.872ZM416.447 57.1971C414.895 58.0958 413.661 59.389 412.736 61.0077L416.209 62.9923C416.82 61.923 417.571 61.1682 418.451 60.6589L416.447 57.1971ZM412.719 61.0394C411.793 62.7292 411.369 64.6561 411.369 66.752H415.369C415.369 65.1999 415.68 63.9588 416.227 62.9606L412.719 61.0394ZM411.369 66.752C411.369 68.8494 411.794 70.7836 412.709 72.4953L416.236 70.6087C415.68 69.5683 415.369 68.3026 415.369 66.752H411.369ZM412.736 72.5443C413.661 74.163 414.895 75.4562 416.447 76.3549L418.451 72.8931C417.571 72.3838 416.82 71.629 416.209 70.5597L412.736 72.5443ZM416.466 76.366C418.001 77.2318 419.65 77.68 421.385 77.68V73.68C420.368 73.68 419.393 73.4242 418.432 72.882L416.466 76.366ZM421.385 77.68C423.144 77.68 424.802 77.2355 426.323 76.3549L424.319 72.8931C423.408 73.4205 422.442 73.68 421.385 73.68V77.68ZM426.337 76.3467C427.925 75.41 429.165 74.0729 430.06 72.3993L426.533 70.5127C425.956 71.5911 425.213 72.366 424.305 72.9013L426.337 76.3467ZM430.043 72.4307C431.002 70.7128 431.449 68.767 431.449 66.656H427.449C427.449 68.193 427.128 69.4472 426.55 70.4813L430.043 72.4307Z" fill="#09635D" mask="url(#path-2-outside-1_968_7169)"/>
<ellipse cx="69.2466" cy="59.2691" rx="41.7535" ry="40.9007" fill="url(#paint0_linear_968_7169)" stroke="#09635D" stroke-width="3"/>
<path d="M83.6244 68.6579C59.0001 86.4738 60.1417 68.6579 21.2225 83.1018C-17.6967 97.5456 50.4244 69.1116 56.763 57.4199C67.7 49.9825 74.1518 33.088 83.6244 38.0158C99.09 46.0614 90.4988 63.6842 83.6244 68.6579Z" fill="#FCE40D"/>
<ellipse cx="80.1885" cy="50.9735" rx="11.4555" ry="13.8158" fill="#FCE40D"/>
<ellipse cx="80.6496" cy="45.2446" rx="2.52463" ry="2.6633" fill="#FAFAFA"/>
<path d="M102.661 52.3803L90.0757 58.2469L90.2212 46.2232L102.661 52.3803Z" fill="#FAFAFA"/>
<path d="M76.5092 62.2782C32.4672 83.2047 40.4298 34.5853 35.8561 21.9173L76.5092 62.2782Z" fill="#FCCC0D"/>
<path d="M83.2991 57.1633C43.1709 106.051 20.2917 39.2877 6.14978 25.1908L83.2991 57.1633Z" fill="#FCE40D"/>
<defs>
<linearGradient id="paint0_linear_968_7169" x1="69.2466" y1="18.3684" x2="69.2466" y2="100.17" gradientUnits="userSpaceOnUse">
<stop stop-color="#1359EF"/>
<stop offset="0.620052" stop-color="white"/>
<stop offset="0.650052" stop-color="#13EFE0"/>
</linearGradient>
</defs>
</svg>
