<svg width="525" height="138" viewBox="0 0 525 138" fill="none" xmlns="http://www.w3.org/2000/svg">
<path d="M1.5 20.5H407C433.786 20.5 455.5 42.2142 455.5 69V88C455.5 114.786 433.786 136.5 407 136.5H1.5V20.5Z" fill="white"/>
<path d="M1.5 20.5H407C433.786 20.5 455.5 42.2142 455.5 69V88C455.5 114.786 433.786 136.5 407 136.5H1.5V20.5Z" stroke="#333333" stroke-width="3"/>
<mask id="path-2-outside-1_961_3789" maskUnits="userSpaceOnUse" x="118" y="61" width="320" height="52" fill="black">
<rect fill="white" x="118" y="61" width="320" height="52"/>
<path d="M120.776 82.248C120.776 78.984 121.528 76.056 123.032 73.464C124.568 70.872 126.632 68.856 129.224 67.416C131.848 65.944 134.712 65.208 137.816 65.208C141.368 65.208 144.52 66.088 147.272 67.848C150.056 69.576 152.072 72.04 153.32 75.24H146.744C145.88 73.48 144.68 72.168 143.144 71.304C141.608 70.44 139.832 70.008 137.816 70.008C135.608 70.008 133.64 70.504 131.912 71.496C130.184 72.488 128.824 73.912 127.832 75.768C126.872 77.624 126.392 79.784 126.392 82.248C126.392 84.712 126.872 86.872 127.832 88.728C128.824 90.584 130.184 92.024 131.912 93.048C133.64 94.04 135.608 94.536 137.816 94.536C139.832 94.536 141.608 94.104 143.144 93.24C144.68 92.376 145.88 91.064 146.744 89.304H153.32C152.072 92.504 150.056 94.968 147.272 96.696C144.52 98.424 141.368 99.288 137.816 99.288C134.68 99.288 131.816 98.568 129.224 97.128C126.632 95.656 124.568 93.624 123.032 91.032C121.528 88.44 120.776 85.512 120.776 82.248ZM161.741 85.656C161.741 83 162.285 80.648 163.373 78.6C164.493 76.552 165.997 74.968 167.885 73.848C169.805 72.696 171.917 72.12 174.221 72.12C176.301 72.12 178.109 72.536 179.645 73.368C181.213 74.168 182.461 75.176 183.389 76.392V72.552H188.909V99H183.389V95.064C182.461 96.312 181.197 97.352 179.597 98.184C177.997 99.016 176.173 99.432 174.125 99.432C171.853 99.432 169.773 98.856 167.885 97.704C165.997 96.52 164.493 94.888 163.373 92.808C162.285 90.696 161.741 88.312 161.741 85.656ZM183.389 85.752C183.389 83.928 183.005 82.344 182.237 81C181.501 79.656 180.525 78.632 179.309 77.928C178.093 77.224 176.781 76.872 175.373 76.872C173.965 76.872 172.653 77.224 171.437 77.928C170.221 78.6 169.229 79.608 168.461 80.952C167.725 82.264 167.357 83.832 167.357 85.656C167.357 87.48 167.725 89.08 168.461 90.456C169.229 91.832 170.221 92.888 171.437 93.624C172.685 94.328 173.997 94.68 175.373 94.68C176.781 94.68 178.093 94.328 179.309 93.624C180.525 92.92 181.501 91.896 182.237 90.552C183.005 89.176 183.389 87.576 183.389 85.752ZM213.28 72.12C215.36 72.12 217.216 72.552 218.848 73.416C220.512 74.28 221.808 75.56 222.736 77.256C223.664 78.952 224.128 81 224.128 83.4V99H218.704V84.216C218.704 81.848 218.112 80.04 216.928 78.792C215.744 77.512 214.128 76.872 212.08 76.872C210.032 76.872 208.4 77.512 207.184 78.792C206 80.04 205.408 81.848 205.408 84.216V99H199.936V72.552H205.408V75.576C206.304 74.488 207.44 73.64 208.816 73.032C210.224 72.424 211.712 72.12 213.28 72.12ZM233.124 85.656C233.124 83 233.668 80.648 234.756 78.6C235.876 76.552 237.38 74.968 239.268 73.848C241.188 72.696 243.3 72.12 245.604 72.12C247.684 72.12 249.492 72.536 251.028 73.368C252.596 74.168 253.844 75.176 254.772 76.392V72.552H260.292V99H254.772V95.064C253.844 96.312 252.58 97.352 250.98 98.184C249.38 99.016 247.556 99.432 245.508 99.432C243.236 99.432 241.156 98.856 239.268 97.704C237.38 96.52 235.876 94.888 234.756 92.808C233.668 90.696 233.124 88.312 233.124 85.656ZM254.772 85.752C254.772 83.928 254.388 82.344 253.62 81C252.884 79.656 251.908 78.632 250.692 77.928C249.476 77.224 248.164 76.872 246.756 76.872C245.348 76.872 244.036 77.224 242.82 77.928C241.604 78.6 240.612 79.608 239.844 80.952C239.108 82.264 238.74 83.832 238.74 85.656C238.74 87.48 239.108 89.08 239.844 90.456C240.612 91.832 241.604 92.888 242.82 93.624C244.068 94.328 245.38 94.68 246.756 94.68C248.164 94.68 249.476 94.328 250.692 93.624C251.908 92.92 252.884 91.896 253.62 90.552C254.388 89.176 254.772 87.576 254.772 85.752ZM276.791 76.392C277.591 75.048 278.647 74.008 279.959 73.272C281.303 72.504 282.887 72.12 284.711 72.12V77.784H283.319C281.175 77.784 279.543 78.328 278.423 79.416C277.335 80.504 276.791 82.392 276.791 85.08V99H271.319V72.552H276.791V76.392ZM361.841 65.64V99H356.369V84.408H340.673V99H335.201V65.64H340.673V79.944H356.369V65.64H361.841ZM396.837 72.552V99H391.365V95.88C390.501 96.968 389.365 97.832 387.957 98.472C386.581 99.08 385.109 99.384 383.541 99.384C381.461 99.384 379.589 98.952 377.925 98.088C376.293 97.224 374.997 95.944 374.037 94.248C373.109 92.552 372.645 90.504 372.645 88.104V72.552H378.069V87.288C378.069 89.656 378.661 91.48 379.845 92.76C381.029 94.008 382.645 94.632 384.693 94.632C386.741 94.632 388.357 94.008 389.541 92.76C390.757 91.48 391.365 89.656 391.365 87.288V72.552H396.837ZM413.369 76.488C414.297 75.208 415.561 74.168 417.161 73.368C418.793 72.536 420.601 72.12 422.585 72.12C424.921 72.12 427.033 72.68 428.921 73.8C430.809 74.92 432.297 76.52 433.385 78.6C434.473 80.648 435.017 83 435.017 85.656C435.017 88.312 434.473 90.696 433.385 92.808C432.297 94.888 430.793 96.52 428.873 97.704C426.985 98.856 424.889 99.432 422.585 99.432C420.537 99.432 418.713 99.032 417.113 98.232C415.545 97.432 414.297 96.408 413.369 95.16V99H407.897V63.48H413.369V76.488ZM429.449 85.656C429.449 83.832 429.065 82.264 428.297 80.952C427.561 79.608 426.569 78.6 425.321 77.928C424.105 77.224 422.793 76.872 421.385 76.872C420.009 76.872 418.697 77.224 417.449 77.928C416.233 78.632 415.241 79.656 414.473 81C413.737 82.344 413.369 83.928 413.369 85.752C413.369 87.576 413.737 89.176 414.473 90.552C415.241 91.896 416.233 92.92 417.449 93.624C418.697 94.328 420.009 94.68 421.385 94.68C422.793 94.68 424.105 94.328 425.321 93.624C426.569 92.888 427.561 91.832 428.297 90.456C429.065 89.08 429.449 87.48 429.449 85.656Z"/>
<path d="M302.141 110.52C299.88 110.52 297.107 110.307 293.821 109.88V101.56H299.581C301.203 101.56 302.248 101.112 302.717 100.216C303.229 99.32 303.144 98.0613 302.461 96.44L289.341 65.08H301.181L309.181 86.84L315.901 65.08H327.741L314.941 100.28C313.704 103.651 312.104 106.189 310.141 107.896C308.179 109.645 305.512 110.52 302.141 110.52Z"/>
</mask>
<path d="M120.776 82.248C120.776 78.984 121.528 76.056 123.032 73.464C124.568 70.872 126.632 68.856 129.224 67.416C131.848 65.944 134.712 65.208 137.816 65.208C141.368 65.208 144.52 66.088 147.272 67.848C150.056 69.576 152.072 72.04 153.32 75.24H146.744C145.88 73.48 144.68 72.168 143.144 71.304C141.608 70.44 139.832 70.008 137.816 70.008C135.608 70.008 133.64 70.504 131.912 71.496C130.184 72.488 128.824 73.912 127.832 75.768C126.872 77.624 126.392 79.784 126.392 82.248C126.392 84.712 126.872 86.872 127.832 88.728C128.824 90.584 130.184 92.024 131.912 93.048C133.64 94.04 135.608 94.536 137.816 94.536C139.832 94.536 141.608 94.104 143.144 93.24C144.68 92.376 145.88 91.064 146.744 89.304H153.32C152.072 92.504 150.056 94.968 147.272 96.696C144.52 98.424 141.368 99.288 137.816 99.288C134.68 99.288 131.816 98.568 129.224 97.128C126.632 95.656 124.568 93.624 123.032 91.032C121.528 88.44 120.776 85.512 120.776 82.248ZM161.741 85.656C161.741 83 162.285 80.648 163.373 78.6C164.493 76.552 165.997 74.968 167.885 73.848C169.805 72.696 171.917 72.12 174.221 72.12C176.301 72.12 178.109 72.536 179.645 73.368C181.213 74.168 182.461 75.176 183.389 76.392V72.552H188.909V99H183.389V95.064C182.461 96.312 181.197 97.352 179.597 98.184C177.997 99.016 176.173 99.432 174.125 99.432C171.853 99.432 169.773 98.856 167.885 97.704C165.997 96.52 164.493 94.888 163.373 92.808C162.285 90.696 161.741 88.312 161.741 85.656ZM183.389 85.752C183.389 83.928 183.005 82.344 182.237 81C181.501 79.656 180.525 78.632 179.309 77.928C178.093 77.224 176.781 76.872 175.373 76.872C173.965 76.872 172.653 77.224 171.437 77.928C170.221 78.6 169.229 79.608 168.461 80.952C167.725 82.264 167.357 83.832 167.357 85.656C167.357 87.48 167.725 89.08 168.461 90.456C169.229 91.832 170.221 92.888 171.437 93.624C172.685 94.328 173.997 94.68 175.373 94.68C176.781 94.68 178.093 94.328 179.309 93.624C180.525 92.92 181.501 91.896 182.237 90.552C183.005 89.176 183.389 87.576 183.389 85.752ZM213.28 72.12C215.36 72.12 217.216 72.552 218.848 73.416C220.512 74.28 221.808 75.56 222.736 77.256C223.664 78.952 224.128 81 224.128 83.4V99H218.704V84.216C218.704 81.848 218.112 80.04 216.928 78.792C215.744 77.512 214.128 76.872 212.08 76.872C210.032 76.872 208.4 77.512 207.184 78.792C206 80.04 205.408 81.848 205.408 84.216V99H199.936V72.552H205.408V75.576C206.304 74.488 207.44 73.64 208.816 73.032C210.224 72.424 211.712 72.12 213.28 72.12ZM233.124 85.656C233.124 83 233.668 80.648 234.756 78.6C235.876 76.552 237.38 74.968 239.268 73.848C241.188 72.696 243.3 72.12 245.604 72.12C247.684 72.12 249.492 72.536 251.028 73.368C252.596 74.168 253.844 75.176 254.772 76.392V72.552H260.292V99H254.772V95.064C253.844 96.312 252.58 97.352 250.98 98.184C249.38 99.016 247.556 99.432 245.508 99.432C243.236 99.432 241.156 98.856 239.268 97.704C237.38 96.52 235.876 94.888 234.756 92.808C233.668 90.696 233.124 88.312 233.124 85.656ZM254.772 85.752C254.772 83.928 254.388 82.344 253.62 81C252.884 79.656 251.908 78.632 250.692 77.928C249.476 77.224 248.164 76.872 246.756 76.872C245.348 76.872 244.036 77.224 242.82 77.928C241.604 78.6 240.612 79.608 239.844 80.952C239.108 82.264 238.74 83.832 238.74 85.656C238.74 87.48 239.108 89.08 239.844 90.456C240.612 91.832 241.604 92.888 242.82 93.624C244.068 94.328 245.38 94.68 246.756 94.68C248.164 94.68 249.476 94.328 250.692 93.624C251.908 92.92 252.884 91.896 253.62 90.552C254.388 89.176 254.772 87.576 254.772 85.752ZM276.791 76.392C277.591 75.048 278.647 74.008 279.959 73.272C281.303 72.504 282.887 72.12 284.711 72.12V77.784H283.319C281.175 77.784 279.543 78.328 278.423 79.416C277.335 80.504 276.791 82.392 276.791 85.08V99H271.319V72.552H276.791V76.392ZM361.841 65.64V99H356.369V84.408H340.673V99H335.201V65.64H340.673V79.944H356.369V65.64H361.841ZM396.837 72.552V99H391.365V95.88C390.501 96.968 389.365 97.832 387.957 98.472C386.581 99.08 385.109 99.384 383.541 99.384C381.461 99.384 379.589 98.952 377.925 98.088C376.293 97.224 374.997 95.944 374.037 94.248C373.109 92.552 372.645 90.504 372.645 88.104V72.552H378.069V87.288C378.069 89.656 378.661 91.48 379.845 92.76C381.029 94.008 382.645 94.632 384.693 94.632C386.741 94.632 388.357 94.008 389.541 92.76C390.757 91.48 391.365 89.656 391.365 87.288V72.552H396.837ZM413.369 76.488C414.297 75.208 415.561 74.168 417.161 73.368C418.793 72.536 420.601 72.12 422.585 72.12C424.921 72.12 427.033 72.68 428.921 73.8C430.809 74.92 432.297 76.52 433.385 78.6C434.473 80.648 435.017 83 435.017 85.656C435.017 88.312 434.473 90.696 433.385 92.808C432.297 94.888 430.793 96.52 428.873 97.704C426.985 98.856 424.889 99.432 422.585 99.432C420.537 99.432 418.713 99.032 417.113 98.232C415.545 97.432 414.297 96.408 413.369 95.16V99H407.897V63.48H413.369V76.488ZM429.449 85.656C429.449 83.832 429.065 82.264 428.297 80.952C427.561 79.608 426.569 78.6 425.321 77.928C424.105 77.224 422.793 76.872 421.385 76.872C420.009 76.872 418.697 77.224 417.449 77.928C416.233 78.632 415.241 79.656 414.473 81C413.737 82.344 413.369 83.928 413.369 85.752C413.369 87.576 413.737 89.176 414.473 90.552C415.241 91.896 416.233 92.92 417.449 93.624C418.697 94.328 420.009 94.68 421.385 94.68C422.793 94.68 424.105 94.328 425.321 93.624C426.569 92.888 427.561 91.832 428.297 90.456C429.065 89.08 429.449 87.48 429.449 85.656Z" fill="#09635D"/>
<path d="M302.141 110.52C299.88 110.52 297.107 110.307 293.821 109.88V101.56H299.581C301.203 101.56 302.248 101.112 302.717 100.216C303.229 99.32 303.144 98.0613 302.461 96.44L289.341 65.08H301.181L309.181 86.84L315.901 65.08H327.741L314.941 100.28C313.704 103.651 312.104 106.189 310.141 107.896C308.179 109.645 305.512 110.52 302.141 110.52Z" fill="#FCCC0D"/>
<path d="M123.032 73.464L121.311 72.4444L121.307 72.4523L121.302 72.4602L123.032 73.464ZM129.224 67.416L130.195 69.1643L130.203 69.1603L129.224 67.416ZM147.272 67.848L146.194 69.5329L146.206 69.5402L146.217 69.5473L147.272 67.848ZM153.32 75.24V77.24H156.247L155.183 74.5133L153.32 75.24ZM146.744 75.24L144.949 76.1213L145.498 77.24H146.744V75.24ZM143.144 71.304L144.125 69.5608L143.144 71.304ZM131.912 71.496L132.908 73.2305H132.908L131.912 71.496ZM127.832 75.768L126.068 74.8252L126.062 74.8372L126.056 74.8492L127.832 75.768ZM127.832 88.728L126.056 89.6468L126.062 89.6588L126.068 89.6708L127.832 88.728ZM131.912 93.048L130.892 94.7686L130.904 94.7756L130.916 94.7825L131.912 93.048ZM143.144 93.24L144.125 94.9832L143.144 93.24ZM146.744 89.304V87.304H145.498L144.949 88.4227L146.744 89.304ZM153.32 89.304L155.183 90.0307L156.247 87.304H153.32V89.304ZM147.272 96.696L146.217 94.9967L146.208 95.0022L147.272 96.696ZM129.224 97.128L128.236 98.8671L128.245 98.8718L128.253 98.8763L129.224 97.128ZM123.032 91.032L121.302 92.0358L121.307 92.0437L121.311 92.0516L123.032 91.032ZM122.776 82.248C122.776 79.3041 123.45 76.728 124.762 74.4678L121.302 72.4602C119.606 75.384 118.776 78.6639 118.776 82.248H122.776ZM124.753 74.4836C126.111 72.1915 127.918 70.4292 130.195 69.1643L128.253 65.6677C125.346 67.2828 123.025 69.5525 121.311 72.4444L124.753 74.4836ZM130.203 69.1603C132.518 67.8614 135.043 67.208 137.816 67.208V63.208C134.381 63.208 131.178 64.0266 128.245 65.6717L130.203 69.1603ZM137.816 67.208C141.021 67.208 143.792 67.9966 146.194 69.5329L148.35 66.1631C145.248 64.1794 141.715 63.208 137.816 63.208V67.208ZM146.217 69.5473C148.615 71.0356 150.358 73.149 151.457 75.9667L155.183 74.5133C153.786 70.931 151.497 68.1164 148.327 66.1487L146.217 69.5473ZM153.32 73.24H146.744V77.24H153.32V73.24ZM148.539 74.3587C147.518 72.2782 146.052 70.6452 144.125 69.5608L142.163 73.0471C143.308 73.6908 144.242 74.6818 144.949 76.1213L148.539 74.3587ZM144.125 69.5608C142.248 68.5055 140.125 68.008 137.816 68.008V72.008C139.539 72.008 140.968 72.3745 142.163 73.0471L144.125 69.5608ZM137.816 68.008C135.297 68.008 132.979 68.5772 130.916 69.7615L132.908 73.2305C134.301 72.4308 135.919 72.008 137.816 72.008V68.008ZM130.916 69.7615C128.844 70.9509 127.226 72.658 126.068 74.8252L129.596 76.7108C130.422 75.166 131.524 74.0251 132.908 73.2305L130.916 69.7615ZM126.056 74.8492C124.924 77.0359 124.392 79.5214 124.392 82.248H128.392C128.392 80.0466 128.82 78.2121 129.608 76.6868L126.056 74.8492ZM124.392 82.248C124.392 84.9746 124.924 87.4601 126.056 89.6468L129.608 87.8092C128.82 86.2839 128.392 84.4494 128.392 82.248H124.392ZM126.068 89.6708C127.224 91.8331 128.835 93.5491 130.892 94.7686L132.932 91.3274C131.533 90.4989 130.424 89.3349 129.596 87.7852L126.068 89.6708ZM130.916 94.7825C132.979 95.9668 135.297 96.536 137.816 96.536V92.536C135.919 92.536 134.301 92.1132 132.908 91.3135L130.916 94.7825ZM137.816 96.536C140.125 96.536 142.248 96.0385 144.125 94.9832L142.163 91.4968C140.968 92.1695 139.539 92.536 137.816 92.536V96.536ZM144.125 94.9832C146.052 93.8988 147.518 92.2658 148.539 90.1853L144.949 88.4227C144.242 89.8622 143.308 90.8532 142.163 91.4968L144.125 94.9832ZM146.744 91.304H153.32V87.304H146.744V91.304ZM151.457 88.5773C150.358 91.395 148.615 93.5084 146.217 94.9967L148.327 98.3953C151.497 96.4276 153.786 93.613 155.183 90.0307L151.457 88.5773ZM146.208 95.0022C143.805 96.5117 141.028 97.288 137.816 97.288V101.288C141.708 101.288 145.235 100.336 148.336 98.3898L146.208 95.0022ZM137.816 97.288C135 97.288 132.473 96.6451 130.195 95.3797L128.253 98.8763C131.159 100.491 134.36 101.288 137.816 101.288V97.288ZM130.212 95.3889C127.926 94.0908 126.113 92.3082 124.753 90.0124L121.311 92.0516C123.023 94.9398 125.338 97.2212 128.236 98.8671L130.212 95.3889ZM124.762 90.0282C123.45 87.768 122.776 85.1919 122.776 82.248H118.776C118.776 85.8321 119.606 89.112 121.302 92.0358L124.762 90.0282ZM163.373 78.6L161.618 77.6404L161.612 77.651L161.607 77.6617L163.373 78.6ZM167.885 73.848L168.905 75.5681L168.914 75.563L167.885 73.848ZM179.645 73.368L178.692 75.1266L178.714 75.1383L178.736 75.1495L179.645 73.368ZM183.389 76.392L181.799 77.6053L185.389 82.3094V76.392H183.389ZM183.389 72.552V70.552H181.389V72.552H183.389ZM188.909 72.552H190.909V70.552H188.909V72.552ZM188.909 99V101H190.909V99H188.909ZM183.389 99H181.389V101H183.389V99ZM183.389 95.064H185.389V89.0226L181.784 93.8706L183.389 95.064ZM179.597 98.184L178.674 96.4096L179.597 98.184ZM167.885 97.704L166.822 99.3984L166.833 99.4049L166.843 99.4113L167.885 97.704ZM163.373 92.808L161.595 93.7239L161.603 93.7401L161.612 93.7562L163.373 92.808ZM182.237 81L180.483 81.9606L180.492 81.9765L180.501 81.9923L182.237 81ZM179.309 77.928L178.307 79.6589L179.309 77.928ZM171.437 77.928L172.404 79.6785L172.422 79.6688L172.439 79.6589L171.437 77.928ZM168.461 80.952L166.725 79.9597L166.721 79.9666L166.717 79.9735L168.461 80.952ZM168.461 90.456L166.697 91.3993L166.706 91.4151L166.715 91.4307L168.461 90.456ZM171.437 93.624L170.401 95.335L170.428 95.3509L170.454 95.366L171.437 93.624ZM179.309 93.624L180.311 95.3549L179.309 93.624ZM182.237 90.552L180.491 89.5773L180.487 89.5843L180.483 89.5914L182.237 90.552ZM163.741 85.656C163.741 83.2792 164.226 81.2578 165.139 79.5383L161.607 77.6617C160.344 80.0382 159.741 82.7207 159.741 85.656H163.741ZM165.128 79.5596C166.087 77.8057 167.346 76.4934 168.905 75.5681L166.865 72.1279C164.648 73.4426 162.899 75.2983 161.618 77.6404L165.128 79.5596ZM168.914 75.563C170.514 74.6031 172.268 74.12 174.221 74.12V70.12C171.566 70.12 169.096 70.7889 166.856 72.133L168.914 75.563ZM174.221 74.12C176.032 74.12 177.5 74.4807 178.692 75.1266L180.598 71.6094C178.718 70.5913 176.57 70.12 174.221 70.12V74.12ZM178.736 75.1495C180.078 75.834 181.078 76.6607 181.799 77.6053L184.979 75.1787C183.844 73.6913 182.348 72.502 180.554 71.5865L178.736 75.1495ZM185.389 76.392V72.552H181.389V76.392H185.389ZM183.389 74.552H188.909V70.552H183.389V74.552ZM186.909 72.552V99H190.909V72.552H186.909ZM188.909 97H183.389V101H188.909V97ZM185.389 99V95.064H181.389V99H185.389ZM181.784 93.8706C181.063 94.8399 180.049 95.6949 178.674 96.4096L180.52 99.9584C182.345 99.0091 183.859 97.7841 184.994 96.2574L181.784 93.8706ZM178.674 96.4096C177.396 97.0743 175.896 97.432 174.125 97.432V101.432C176.45 101.432 178.598 100.958 180.52 99.9584L178.674 96.4096ZM174.125 97.432C172.21 97.432 170.492 96.9519 168.927 95.9967L166.843 99.4113C169.054 100.76 171.496 101.432 174.125 101.432V97.432ZM168.948 96.0096C167.371 95.0208 166.1 93.6538 165.134 91.8598L161.612 93.7562C162.886 96.1222 164.623 98.0192 166.822 99.3984L168.948 96.0096ZM165.151 91.8921C164.225 90.0954 163.741 88.0314 163.741 85.656H159.741C159.741 88.5926 160.345 91.2966 161.595 93.7239L165.151 91.8921ZM185.389 85.752C185.389 83.6424 184.943 81.7039 183.973 80.0077L180.501 81.9923C181.067 82.9841 181.389 84.2136 181.389 85.752H185.389ZM183.991 80.0394C183.096 78.4047 181.872 77.1007 180.311 76.1971L178.307 79.6589C179.178 80.1632 179.906 80.9073 180.483 81.9606L183.991 80.0394ZM180.311 76.1971C178.79 75.3165 177.132 74.872 175.373 74.872V78.872C176.43 78.872 177.396 79.1315 178.307 79.6589L180.311 76.1971ZM175.373 74.872C173.614 74.872 171.956 75.3165 170.435 76.1971L172.439 79.6589C173.35 79.1315 174.316 78.872 175.373 78.872V74.872ZM170.47 76.1775C168.897 77.0467 167.653 78.3346 166.725 79.9597L170.197 81.9443C170.805 80.8814 171.545 80.1533 172.404 79.6785L170.47 76.1775ZM166.717 79.9735C165.781 81.6418 165.357 83.5618 165.357 85.656H169.357C169.357 84.1022 169.669 82.8862 170.205 81.9305L166.717 79.9735ZM165.357 85.656C165.357 87.7534 165.782 89.6876 166.697 91.3993L170.225 89.5127C169.668 88.4723 169.357 87.2066 169.357 85.656H165.357ZM166.715 91.4307C167.633 93.076 168.857 94.4004 170.401 95.335L172.473 91.913C171.585 91.3756 170.825 90.588 170.207 89.4813L166.715 91.4307ZM170.454 95.366C171.989 96.2318 173.638 96.68 175.373 96.68V92.68C174.356 92.68 173.381 92.4242 172.42 91.882L170.454 95.366ZM175.373 96.68C177.132 96.68 178.79 96.2355 180.311 95.3549L178.307 91.8931C177.396 92.4205 176.43 92.68 175.373 92.68V96.68ZM180.311 95.3549C181.872 94.4513 183.096 93.1473 183.991 91.5126L180.483 89.5914C179.906 90.6447 179.178 91.3887 178.307 91.8931L180.311 95.3549ZM183.983 91.5267C184.942 89.8088 185.389 87.863 185.389 85.752H181.389C181.389 87.289 181.068 88.5432 180.491 89.5773L183.983 91.5267ZM218.848 73.416L217.912 75.1836L217.92 75.1873L217.927 75.191L218.848 73.416ZM222.736 77.256L220.982 78.216L222.736 77.256ZM224.128 99V101H226.128V99H224.128ZM218.704 99H216.704V101H218.704V99ZM216.928 78.792L215.46 80.1501L215.469 80.1594L215.477 80.1685L216.928 78.792ZM207.184 78.792L205.734 77.4145L205.733 77.4155L207.184 78.792ZM205.408 99V101H207.408V99H205.408ZM199.936 99H197.936V101H199.936V99ZM199.936 72.552V70.552H197.936V72.552H199.936ZM205.408 72.552H207.408V70.552H205.408V72.552ZM205.408 75.576H203.408V81.1507L206.952 76.8474L205.408 75.576ZM208.816 73.032L208.023 71.1959L208.016 71.1992L208.008 71.2026L208.816 73.032ZM213.28 74.12C215.076 74.12 216.604 74.4906 217.912 75.1836L219.784 71.6484C217.829 70.6134 215.645 70.12 213.28 70.12V74.12ZM217.927 75.191C219.227 75.8661 220.238 76.8568 220.982 78.216L224.491 76.296C223.378 74.2632 221.798 72.6939 219.77 71.641L217.927 75.191ZM220.982 78.216C221.714 79.5548 222.128 81.2557 222.128 83.4H226.128C226.128 80.7443 225.614 78.3492 224.491 76.296L220.982 78.216ZM222.128 83.4V99H226.128V83.4H222.128ZM224.128 97H218.704V101H224.128V97ZM220.704 99V84.216H216.704V99H220.704ZM220.704 84.216C220.704 81.5312 220.03 79.156 218.379 77.4155L215.477 80.1685C216.194 80.924 216.704 82.1648 216.704 84.216H220.704ZM218.396 77.4339C216.767 75.6727 214.58 74.872 212.08 74.872V78.872C213.677 78.872 214.721 79.3513 215.46 80.1501L218.396 77.4339ZM212.08 74.872C209.58 74.872 207.389 75.6726 205.734 77.4145L208.634 80.1695C209.411 79.3514 210.485 78.872 212.08 78.872V74.872ZM205.733 77.4155C204.082 79.156 203.408 81.5312 203.408 84.216H207.408C207.408 82.1648 207.918 80.924 208.635 80.1685L205.733 77.4155ZM203.408 84.216V99H207.408V84.216H203.408ZM205.408 97H199.936V101H205.408V97ZM201.936 99V72.552H197.936V99H201.936ZM199.936 74.552H205.408V70.552H199.936V74.552ZM203.408 72.552V75.576H207.408V72.552H203.408ZM206.952 76.8474C207.637 76.0163 208.514 75.352 209.625 74.8614L208.008 71.2026C206.366 71.928 204.972 72.9597 203.864 74.3046L206.952 76.8474ZM209.609 74.8681C210.761 74.3707 211.979 74.12 213.28 74.12V70.12C211.446 70.12 209.687 70.4773 208.023 71.1959L209.609 74.8681ZM234.756 78.6L233.001 77.6404L232.996 77.651L232.99 77.6617L234.756 78.6ZM239.268 73.848L240.289 75.5681L240.297 75.563L239.268 73.848ZM251.028 73.368L250.076 75.1266L250.097 75.1383L250.119 75.1495L251.028 73.368ZM254.772 76.392L253.182 77.6053L256.772 82.3094V76.392H254.772ZM254.772 72.552V70.552H252.772V72.552H254.772ZM260.292 72.552H262.292V70.552H260.292V72.552ZM260.292 99V101H262.292V99H260.292ZM254.772 99H252.772V101H254.772V99ZM254.772 95.064H256.772V89.0226L253.167 93.8706L254.772 95.064ZM250.98 98.184L250.057 96.4096L250.98 98.184ZM239.268 97.704L238.206 99.3984L238.216 99.4049L238.226 99.4113L239.268 97.704ZM234.756 92.808L232.978 93.7239L232.987 93.7401L232.995 93.7562L234.756 92.808ZM253.62 81L251.866 81.9606L251.875 81.9765L251.884 81.9923L253.62 81ZM250.692 77.928L249.69 79.6589L250.692 77.928ZM242.82 77.928L243.787 79.6785L243.805 79.6688L243.822 79.6589L242.82 77.928ZM239.844 80.952L238.108 79.9597L238.104 79.9666L238.1 79.9735L239.844 80.952ZM239.844 90.456L238.081 91.3993L238.089 91.4151L238.098 91.4307L239.844 90.456ZM242.82 93.624L241.785 95.335L241.811 95.3509L241.837 95.366L242.82 93.624ZM250.692 93.624L251.694 95.3549L250.692 93.624ZM253.62 90.552L251.874 89.5773L251.87 89.5843L251.866 89.5914L253.62 90.552ZM235.124 85.656C235.124 83.2792 235.609 81.2578 236.522 79.5383L232.99 77.6617C231.727 80.0382 231.124 82.7207 231.124 85.656H235.124ZM236.511 79.5596C237.47 77.8057 238.729 76.4934 240.289 75.5681L238.248 72.1279C236.031 73.4426 234.282 75.2983 233.001 77.6404L236.511 79.5596ZM240.297 75.563C241.897 74.6031 243.652 74.12 245.604 74.12V70.12C242.949 70.12 240.479 70.7889 238.239 72.133L240.297 75.563ZM245.604 74.12C247.415 74.12 248.883 74.4807 250.076 75.1266L251.981 71.6094C250.101 70.5913 247.953 70.12 245.604 70.12V74.12ZM250.119 75.1495C251.461 75.834 252.461 76.6607 253.182 77.6053L256.362 75.1787C255.227 73.6913 253.732 72.502 251.937 71.5865L250.119 75.1495ZM256.772 76.392V72.552H252.772V76.392H256.772ZM254.772 74.552H260.292V70.552H254.772V74.552ZM258.292 72.552V99H262.292V72.552H258.292ZM260.292 97H254.772V101H260.292V97ZM256.772 99V95.064H252.772V99H256.772ZM253.167 93.8706C252.446 94.8399 251.432 95.6949 250.057 96.4096L251.903 99.9584C253.729 99.0091 255.242 97.7841 256.377 96.2574L253.167 93.8706ZM250.057 96.4096C248.779 97.0743 247.279 97.432 245.508 97.432V101.432C247.833 101.432 249.981 100.958 251.903 99.9584L250.057 96.4096ZM245.508 97.432C243.593 97.432 241.875 96.9519 240.31 95.9967L238.226 99.4113C240.437 100.76 242.879 101.432 245.508 101.432V97.432ZM240.331 96.0096C238.754 95.0208 237.483 93.6538 236.517 91.8598L232.995 93.7562C234.269 96.1222 236.006 98.0192 238.206 99.3984L240.331 96.0096ZM236.534 91.8921C235.608 90.0954 235.124 88.0314 235.124 85.656H231.124C231.124 88.5926 231.728 91.2966 232.978 93.7239L236.534 91.8921ZM256.772 85.752C256.772 83.6424 256.326 81.7039 255.357 80.0077L251.884 81.9923C252.45 82.9841 252.772 84.2136 252.772 85.752H256.772ZM255.374 80.0394C254.479 78.4047 253.255 77.1007 251.694 76.1971L249.69 79.6589C250.561 80.1632 251.289 80.9073 251.866 81.9606L255.374 80.0394ZM251.694 76.1971C250.173 75.3165 248.515 74.872 246.756 74.872V78.872C247.813 78.872 248.779 79.1315 249.69 79.6589L251.694 76.1971ZM246.756 74.872C244.997 74.872 243.339 75.3165 241.818 76.1971L243.822 79.6589C244.733 79.1315 245.699 78.872 246.756 78.872V74.872ZM241.853 76.1775C240.28 77.0467 239.036 78.3346 238.108 79.9597L241.581 81.9443C242.188 80.8814 242.928 80.1533 243.787 79.6785L241.853 76.1775ZM238.1 79.9735C237.164 81.6418 236.74 83.5618 236.74 85.656H240.74C240.74 84.1022 241.052 82.8862 241.588 81.9305L238.1 79.9735ZM236.74 85.656C236.74 87.7534 237.165 89.6876 238.081 91.3993L241.608 89.5127C241.051 88.4723 240.74 87.2066 240.74 85.656H236.74ZM238.098 91.4307C239.016 93.076 240.24 94.4004 241.785 95.335L243.856 91.913C242.968 91.3756 242.208 90.588 241.591 89.4813L238.098 91.4307ZM241.837 95.366C243.372 96.2318 245.021 96.68 246.756 96.68V92.68C245.739 92.68 244.764 92.4242 243.803 91.882L241.837 95.366ZM246.756 96.68C248.515 96.68 250.173 96.2355 251.694 95.3549L249.69 91.8931C248.779 92.4205 247.813 92.68 246.756 92.68V96.68ZM251.694 95.3549C253.255 94.4513 254.479 93.1473 255.374 91.5126L251.866 89.5914C251.289 90.6447 250.561 91.3887 249.69 91.8931L251.694 95.3549ZM255.367 91.5267C256.325 89.8088 256.772 87.863 256.772 85.752H252.772C252.772 87.289 252.451 88.5432 251.874 89.5773L255.367 91.5267ZM276.791 76.392H274.791V83.6622L278.51 77.415L276.791 76.392ZM279.959 73.272L280.938 75.0163L280.945 75.0124L280.952 75.0085L279.959 73.272ZM284.711 72.12H286.711V70.12H284.711V72.12ZM284.711 77.784V79.784H286.711V77.784H284.711ZM278.423 79.416L277.03 77.9814L277.019 77.9915L277.009 78.0018L278.423 79.416ZM276.791 99V101H278.791V99H276.791ZM271.319 99H269.319V101H271.319V99ZM271.319 72.552V70.552H269.319V72.552H271.319ZM276.791 72.552H278.791V70.552H276.791V72.552ZM278.51 77.415C279.138 76.3596 279.944 75.5739 280.938 75.0163L278.981 71.5277C277.351 72.4421 276.045 73.7364 275.073 75.369L278.51 77.415ZM280.952 75.0085C281.944 74.4417 283.173 74.12 284.711 74.12V70.12C282.602 70.12 280.663 70.5663 278.967 71.5355L280.952 75.0085ZM282.711 72.12V77.784H286.711V72.12H282.711ZM284.711 75.784H283.319V79.784H284.711V75.784ZM283.319 75.784C280.853 75.784 278.644 76.4132 277.03 77.9814L279.817 80.8506C280.443 80.2428 281.498 79.784 283.319 79.784V75.784ZM277.009 78.0018C275.349 79.6623 274.791 82.2284 274.791 85.08H278.791C278.791 82.5556 279.322 81.3457 279.838 80.8302L277.009 78.0018ZM274.791 85.08V99H278.791V85.08H274.791ZM276.791 97H271.319V101H276.791V97ZM273.319 99V72.552H269.319V99H273.319ZM271.319 74.552H276.791V70.552H271.319V74.552ZM274.791 72.552V76.392H278.791V72.552H274.791ZM293.821 109.88H291.821V111.637L293.564 111.863L293.821 109.88ZM293.821 101.56V99.56H291.821V101.56H293.821ZM302.717 100.216L300.981 99.2237L300.963 99.2555L300.946 99.288L302.717 100.216ZM302.461 96.44L300.616 97.2119L300.618 97.2161L302.461 96.44ZM289.341 65.08V63.08H286.337L287.496 65.8519L289.341 65.08ZM301.181 65.08L303.058 64.3899L302.577 63.08H301.181V65.08ZM309.181 86.84L307.304 87.5301L309.346 93.0843L311.092 87.4301L309.181 86.84ZM315.901 65.08V63.08H314.426L313.99 64.4899L315.901 65.08ZM327.741 65.08L329.621 65.7635L330.597 63.08H327.741V65.08ZM314.941 100.28L316.819 100.969L316.821 100.963L314.941 100.28ZM310.141 107.896L308.829 106.387L308.82 106.395L308.811 106.403L310.141 107.896ZM302.141 108.52C299.996 108.52 297.314 108.317 294.079 107.897L293.564 111.863C296.899 112.297 299.764 112.52 302.141 112.52V108.52ZM295.821 109.88V101.56H291.821V109.88H295.821ZM293.821 103.56H299.581V99.56H293.821V103.56ZM299.581 103.56C301.464 103.56 303.497 103.038 304.489 101.144L300.946 99.288C300.941 99.2971 300.938 99.3007 300.93 99.308C300.919 99.3174 300.882 99.3479 300.793 99.3857C300.602 99.4678 300.228 99.56 299.581 99.56V103.56ZM304.454 101.208C305.439 99.4847 305.062 97.4638 304.305 95.6639L300.618 97.2161C301.225 98.6588 301.02 99.1553 300.981 99.2237L304.454 101.208ZM304.306 95.6681L291.186 64.3081L287.496 65.8519L300.616 97.2119L304.306 95.6681ZM289.341 67.08H301.181V63.08H289.341V67.08ZM299.304 65.7701L307.304 87.5301L311.058 86.1499L303.058 64.3899L299.304 65.7701ZM311.092 87.4301L317.812 65.6701L313.99 64.4899L307.27 86.2499L311.092 87.4301ZM315.901 67.08H327.741V63.08H315.901V67.08ZM325.862 64.3965L313.062 99.5965L316.821 100.963L329.621 65.7635L325.862 64.3965ZM313.064 99.5908C311.901 102.759 310.459 104.97 308.829 106.387L311.454 109.405C313.749 107.409 315.507 104.542 316.819 100.969L313.064 99.5908ZM308.811 106.403C307.308 107.742 305.164 108.52 302.141 108.52V112.52C305.86 112.52 309.049 111.549 311.472 109.389L308.811 106.403ZM361.841 65.64H363.841V63.64H361.841V65.64ZM361.841 99V101H363.841V99H361.841ZM356.369 99H354.369V101H356.369V99ZM356.369 84.408H358.369V82.408H356.369V84.408ZM340.673 84.408V82.408H338.673V84.408H340.673ZM340.673 99V101H342.673V99H340.673ZM335.201 99H333.201V101H335.201V99ZM335.201 65.64V63.64H333.201V65.64H335.201ZM340.673 65.64H342.673V63.64H340.673V65.64ZM340.673 79.944H338.673V81.944H340.673V79.944ZM356.369 79.944V81.944H358.369V79.944H356.369ZM356.369 65.64V63.64H354.369V65.64H356.369ZM359.841 65.64V99H363.841V65.64H359.841ZM361.841 97H356.369V101H361.841V97ZM358.369 99V84.408H354.369V99H358.369ZM356.369 82.408H340.673V86.408H356.369V82.408ZM338.673 84.408V99H342.673V84.408H338.673ZM340.673 97H335.201V101H340.673V97ZM337.201 99V65.64H333.201V99H337.201ZM335.201 67.64H340.673V63.64H335.201V67.64ZM338.673 65.64V79.944H342.673V65.64H338.673ZM340.673 81.944H356.369V77.944H340.673V81.944ZM358.369 79.944V65.64H354.369V79.944H358.369ZM356.369 67.64H361.841V63.64H356.369V67.64ZM396.837 72.552H398.837V70.552H396.837V72.552ZM396.837 99V101H398.837V99H396.837ZM391.365 99H389.365V101H391.365V99ZM391.365 95.88H393.365V90.1454L389.799 94.6362L391.365 95.88ZM387.957 98.472L388.765 100.301L388.775 100.297L388.785 100.293L387.957 98.472ZM377.925 98.088L376.989 99.8556L376.996 99.8593L377.003 99.863L377.925 98.088ZM374.037 94.248L372.282 95.208L372.289 95.2207L372.296 95.2332L374.037 94.248ZM372.645 72.552V70.552H370.645V72.552H372.645ZM378.069 72.552H380.069V70.552H378.069V72.552ZM379.845 92.76L378.377 94.1181L378.385 94.1274L378.394 94.1365L379.845 92.76ZM389.541 92.76L388.091 91.3825L388.09 91.3835L389.541 92.76ZM391.365 72.552V70.552H389.365V72.552H391.365ZM394.837 72.552V99H398.837V72.552H394.837ZM396.837 97H391.365V101H396.837V97ZM393.365 99V95.88H389.365V99H393.365ZM389.799 94.6362C389.153 95.4491 388.282 96.1273 387.129 96.6513L388.785 100.293C390.448 99.5367 391.849 98.4869 392.931 97.1238L389.799 94.6362ZM387.149 96.6426C386.038 97.1333 384.843 97.384 383.541 97.384V101.384C385.375 101.384 387.124 101.027 388.765 100.301L387.149 96.6426ZM383.541 97.384C381.746 97.384 380.196 97.0136 378.847 96.313L377.003 99.863C378.982 100.89 381.176 101.384 383.541 101.384V97.384ZM378.861 96.3204C377.585 95.6452 376.56 94.6458 375.778 93.2628L372.296 95.2332C373.434 97.2422 375.001 98.8028 376.989 99.8556L378.861 96.3204ZM375.792 93.288C375.059 91.9492 374.645 90.2483 374.645 88.104H370.645C370.645 90.7597 371.159 93.1548 372.282 95.208L375.792 93.288ZM374.645 88.104V72.552H370.645V88.104H374.645ZM372.645 74.552H378.069V70.552H372.645V74.552ZM376.069 72.552V87.288H380.069V72.552H376.069ZM376.069 87.288C376.069 89.9766 376.744 92.3531 378.377 94.1181L381.313 91.4019C380.578 90.6069 380.069 89.3354 380.069 87.288H376.069ZM378.394 94.1365C380.027 95.8578 382.209 96.632 384.693 96.632V92.632C383.081 92.632 382.031 92.1582 381.296 91.3835L378.394 94.1365ZM384.693 96.632C387.177 96.632 389.359 95.8578 390.992 94.1365L388.09 91.3835C387.355 92.1582 386.305 92.632 384.693 92.632V96.632ZM390.991 94.1375C392.667 92.3737 393.365 89.9897 393.365 87.288H389.365C389.365 89.3223 388.847 90.5863 388.091 91.3825L390.991 94.1375ZM393.365 87.288V72.552H389.365V87.288H393.365ZM391.365 74.552H396.837V70.552H391.365V74.552ZM413.369 76.488H411.369V82.654L414.988 77.6619L413.369 76.488ZM417.161 73.368L418.055 75.1569L418.062 75.1534L418.069 75.1498L417.161 73.368ZM428.921 73.8L429.941 72.0799L428.921 73.8ZM433.385 78.6L431.613 79.527L431.619 79.5383L433.385 78.6ZM433.385 92.808L435.157 93.735L435.163 93.7239L433.385 92.808ZM428.873 97.704L429.915 99.4113L429.923 99.4063L428.873 97.704ZM417.113 98.232L416.204 100.014L416.211 100.017L416.218 100.021L417.113 98.232ZM413.369 95.16L414.974 93.9666L411.369 89.1186V95.16H413.369ZM413.369 99V101H415.369V99H413.369ZM407.897 99H405.897V101H407.897V99ZM407.897 63.48V61.48H405.897V63.48H407.897ZM413.369 63.48H415.369V61.48H413.369V63.48ZM428.297 80.952L426.543 81.9126L426.556 81.9377L426.571 81.9624L428.297 80.952ZM425.321 77.928L424.319 79.6589L424.346 79.6743L424.373 79.6889L425.321 77.928ZM417.449 77.928L416.466 76.186L416.456 76.1915L416.447 76.1971L417.449 77.928ZM414.473 81L412.736 80.0077L412.727 80.0235L412.719 80.0394L414.473 81ZM414.473 90.552L412.709 91.4953L412.723 91.52L412.736 91.5443L414.473 90.552ZM417.449 93.624L416.447 95.3549L416.456 95.3605L416.466 95.366L417.449 93.624ZM425.321 93.624L426.323 95.3549L426.33 95.3508L426.337 95.3467L425.321 93.624ZM428.297 90.456L426.55 89.4813L426.542 89.4969L426.533 89.5127L428.297 90.456ZM414.988 77.6619C415.704 76.6747 416.705 75.8322 418.055 75.1569L416.266 71.5791C414.417 72.5038 412.89 73.7413 411.75 75.3141L414.988 77.6619ZM418.069 75.1498C419.397 74.4729 420.89 74.12 422.585 74.12V70.12C420.312 70.12 418.189 70.5991 416.253 71.5862L418.069 75.1498ZM422.585 74.12C424.586 74.12 426.341 74.5952 427.9 75.5201L429.941 72.0799C427.724 70.7648 425.256 70.12 422.585 70.12V74.12ZM427.9 75.5201C429.447 76.4374 430.684 77.7523 431.613 79.527L435.157 77.673C433.909 75.2877 432.171 73.4026 429.941 72.0799L427.9 75.5201ZM431.619 79.5383C432.532 81.2578 433.017 83.2792 433.017 85.656H437.017C437.017 82.7207 436.414 80.0382 435.151 77.6617L431.619 79.5383ZM433.017 85.656C433.017 88.0314 432.533 90.0954 431.607 91.8921L435.163 93.7239C436.413 91.2966 437.017 88.5926 437.017 85.656H433.017ZM431.613 91.881C430.684 93.6558 429.424 95.0143 427.823 96.0017L429.923 99.4063C432.162 98.0257 433.909 96.1202 435.157 93.735L431.613 91.881ZM427.831 95.9967C426.27 96.9491 424.537 97.432 422.585 97.432V101.432C425.24 101.432 427.699 100.763 429.915 99.4113L427.831 95.9967ZM422.585 97.432C420.802 97.432 419.292 97.0854 418.007 96.4431L416.218 100.021C418.134 100.979 420.272 101.432 422.585 101.432V97.432ZM418.022 96.4505C416.692 95.7718 415.695 94.9368 414.974 93.9666L411.764 96.3534C412.899 97.8792 414.398 99.0922 416.204 100.014L418.022 96.4505ZM411.369 95.16V99H415.369V95.16H411.369ZM413.369 97H407.897V101H413.369V97ZM409.897 99V63.48H405.897V99H409.897ZM407.897 65.48H413.369V61.48H407.897V65.48ZM411.369 63.48V76.488H415.369V63.48H411.369ZM431.449 85.656C431.449 83.548 431.003 81.6162 430.023 79.9416L426.571 81.9624C427.127 82.9118 427.449 84.116 427.449 85.656H431.449ZM430.051 79.9914C429.145 78.337 427.885 77.0372 426.269 76.1671L424.373 79.6889C425.253 80.1628 425.977 80.879 426.543 81.9126L430.051 79.9914ZM426.323 76.1971C424.802 75.3165 423.144 74.872 421.385 74.872V78.872C422.442 78.872 423.408 79.1315 424.319 79.6589L426.323 76.1971ZM421.385 74.872C419.65 74.872 418.001 75.3202 416.466 76.186L418.432 79.67C419.393 79.1278 420.368 78.872 421.385 78.872V74.872ZM416.447 76.1971C414.895 77.0958 413.661 78.389 412.736 80.0077L416.209 81.9923C416.82 80.923 417.571 80.1682 418.451 79.6589L416.447 76.1971ZM412.719 80.0394C411.793 81.7292 411.369 83.6561 411.369 85.752H415.369C415.369 84.1999 415.68 82.9588 416.227 81.9606L412.719 80.0394ZM411.369 85.752C411.369 87.8494 411.794 89.7836 412.709 91.4953L416.236 89.6087C415.68 88.5683 415.369 87.3026 415.369 85.752H411.369ZM412.736 91.5443C413.661 93.163 414.895 94.4562 416.447 95.3549L418.451 91.8931C417.571 91.3838 416.82 90.629 416.209 89.5597L412.736 91.5443ZM416.466 95.366C418.001 96.2318 419.65 96.68 421.385 96.68V92.68C420.368 92.68 419.393 92.4242 418.432 91.882L416.466 95.366ZM421.385 96.68C423.144 96.68 424.802 96.2355 426.323 95.3549L424.319 91.8931C423.408 92.4205 422.442 92.68 421.385 92.68V96.68ZM426.337 95.3467C427.925 94.41 429.165 93.0729 430.06 91.3993L426.533 89.5127C425.956 90.5911 425.213 91.366 424.305 91.9013L426.337 95.3467ZM430.043 91.4307C431.002 89.7128 431.449 87.767 431.449 85.656H427.449C427.449 87.193 427.128 88.4472 426.55 89.4813L430.043 91.4307Z" fill="#09635D" mask="url(#path-2-outside-1_961_3789)"/>
<ellipse cx="69.2456" cy="78.2698" rx="41.7535" ry="40.9007" fill="url(#paint0_linear_961_3789)" stroke="#09635D" stroke-width="3"/>
<path d="M83.6249 87.6584C59.0006 105.474 60.1422 87.6584 21.223 102.102C-17.6962 116.546 50.4249 88.1121 56.7635 76.4204C67.7005 68.983 74.1523 52.0885 83.6249 57.0163C99.0905 65.0619 90.4993 82.6847 83.6249 87.6584Z" fill="#FCE40D"/>
<ellipse cx="80.188" cy="69.974" rx="11.4555" ry="13.8158" fill="#FCE40D"/>
<ellipse cx="80.6496" cy="64.2453" rx="2.52463" ry="2.6633" fill="#FAFAFA"/>
<path d="M102.66 71.3813L90.0748 77.2479L90.2203 65.2242L102.66 71.3813Z" fill="#FAFAFA"/>
<path d="M76.5092 81.2789C32.4672 102.205 40.4298 53.586 35.8561 40.918L76.5092 81.2789Z" fill="#FCCC0D"/>
<path d="M83.2986 76.1633C43.1704 125.051 20.2912 58.2877 6.1493 44.1908L83.2986 76.1633Z" fill="#FCE40D"/>
<defs>
<linearGradient id="paint0_linear_961_3789" x1="69.2456" y1="37.3691" x2="69.2456" y2="119.171" gradientUnits="userSpaceOnUse">
<stop stop-color="#1359EF"/>
<stop offset="0.620052" stop-color="white"/>
<stop offset="0.650052" stop-color="#13EFE0"/>
</linearGradient>
</defs>
</svg>
